{
  "asset": {
    "generator": "Khronos glTF Blender I/O v4.5.49",
    "version": "2.0"
  },
  "extensionsUsed": [
    "KHR_materials_specular",
    "KHR_materials_ior"
  ],
  "scene": 0,
  "scenes": [
    {
      "name": "Scene",
      "nodes": [
        0,
        2,
        4,
        6,
        8,
        15,
        19,
        25,
        29,
        35,
        43,
        47,
        53,
        54,
        56,
        58,
        61,
        63,
        65,
        69,
        70,
        71,
        73,
        75,
        77,
        79,
        81,
        88,
        92,
        98,
        102,
        108,
        116,
        120,
        126,
        127,
        129,
        131,
        134,
        136,
        138,
        142,
        143,
        144
      ]
    }
  ],
  "nodes": [
    {
      "name": "图层 01.001",
      "scale": [
        0.009999999776482582,
        0.009999999776482582,
        0.009999999776482582
      ]
    },
    {
      "name": "图层01"
    },
    {
      "children": [
        1
      ],
      "name": "组名1",
      "scale": [
        0.009999999776482582,
        0.009999999776482582,
        0.009999999776482582
      ]
    },
    {
      "name": "图层05"
    },
    {
      "children": [
        3
      ],
      "name": "组名2",
      "scale": [
        0.009999999776482582,
        0.009999999776482582,
        0.009999999776482582
      ]
    },
    {
      "name": "图层09"
    },
    {
      "children": [
        5
      ],
      "name": "组名3",
      "scale": [
        0.009999999776482582,
        0.009999999776482582,
        0.009999999776482582
      ]
    },
    {
      "name": "图层17"
    },
    {
      "children": [
        7
      ],
      "name": "组名5",
      "scale": [
        0.009999999776482582,
        0.009999999776482582,
        0.009999999776482582
      ]
    },
    {
      "name": "物件_430.003",
      "translation": [
        -0.000011444091796875,
        0,
        0
      ]
    },
    {
      "children": [
        9
      ],
      "name": "物件_430.002",
      "translation": [
        -0.00000762939453125,
        0,
        0
      ]
    },
    {
      "children": [
        10
      ],
      "name": "图层01.005",
      "translation": [
        -0.00000762939453125,
        0,
        0
      ]
    },
    {
      "children": [
        11
      ],
      "name": "组名1.005",
      "rotation": [
        -0.70710688829422,
        0,
        0,
        0.7071066498756409
      ],
      "translation": [
        -0.00000762939453125,
        0,
        -0.0000152587890625
      ]
    },
    {
      "children": [
        12
      ],
      "name": "RootNode.001",
      "translation": [
        -0.0000152587890625,
        0,
        -0.0000152587890625
      ]
    },
    {
      "children": [
        13
      ],
      "name": "6珠.001",
      "scale": [
        0.0010000000474974513,
        0.0010000000474974513,
        0.0010000000474974513
      ],
      "translation": [
        -0.05000314861536026,
        0.0041014146991074085,
        -0.046195127069950104
      ]
    },
    {
      "children": [
        14
      ],
      "name": "Default.008"
    },
    {
      "name": "JewelCAD.001"
    },
    {
      "children": [
        16
      ],
      "name": "1(1)(1)",
      "rotation": [
        0.70710688829422,
        0,
        0,
        0.7071066498756409
      ],
      "scale": [
        999.9999389648438,
        999.999755859375,
        999.999755859375
      ],
      "translation": [
        0,
        49.99998092651367,
        0
      ]
    },
    {
      "children": [
        17
      ],
      "name": "Default"
    },
    {
      "children": [
        18
      ],
      "name": "lux_root",
      "scale": [
        0.0010000000474974513,
        0.0010000000474974513,
        0.0010000000474974513
      ]
    },
    {
      "name": "Group"
    },
    {
      "children": [
        20
      ],
      "name": "图层01.001"
    },
    {
      "children": [
        21
      ],
      "name": "组名1.001"
    },
    {
      "children": [
        22
      ],
      "name": "1珠(1)",
      "rotation": [
        0,
        -0.008480647578835487,
        0,
        0.9999640583992004
      ],
      "scale": [
        1000.0001220703125,
        999.9999389648438,
        1000.0001220703125
      ],
      "translation": [
        0,
        3.0508334636688232,
        0
      ]
    },
    {
      "children": [
        23
      ],
      "name": "Default.001"
    },
    {
      "children": [
        24
      ],
      "name": "lux_root.001",
      "scale": [
        0.0010000000474974513,
        0.0010000000474974513,
        0.0010000000474974513
      ]
    },
    {
      "name": "JewelCAD.002"
    },
    {
      "children": [
        26
      ],
      "name": "1(1)(1).001",
      "rotation": [
        0.70710688829422,
        0,
        0,
        0.7071066498756409
      ],
      "scale": [
        999.9999389648438,
        999.9996948242188,
        999.9996948242188
      ],
      "translation": [
        0,
        49.99998092651367,
        0
      ]
    },
    {
      "children": [
        27
      ],
      "name": "Default.002"
    },
    {
      "children": [
        28
      ],
      "name": "lux_root.002",
      "scale": [
        0.0010000000474974513,
        0.0010000000474974513,
        0.0010000000474974513
      ]
    },
    {
      "name": "Group.001"
    },
    {
      "children": [
        30
      ],
      "name": "图层01.002"
    },
    {
      "children": [
        31
      ],
      "name": "组名1.002"
    },
    {
      "children": [
        32
      ],
      "name": "1珠(1).001",
      "rotation": [
        0,
        -0.008480647578835487,
        0,
        0.9999640583992004
      ],
      "scale": [
        1000.0001220703125,
        999.9999389648438,
        1000.0001220703125
      ],
      "translation": [
        0,
        3.0508334636688232,
        0
      ]
    },
    {
      "children": [
        33
      ],
      "name": "Default.003"
    },
    {
      "children": [
        34
      ],
      "name": "lux_root.003",
      "scale": [
        0.0010000000474974513,
        0.0010000000474974513,
        0.0010000000474974513
      ]
    },
    {
      "name": "物件_430.001",
      "translation": [
        0,
        -0.000003337860107421875,
        0
      ]
    },
    {
      "children": [
        36
      ],
      "name": "物件_430",
      "translation": [
        0,
        -0.000003337860107421875,
        0
      ]
    },
    {
      "children": [
        37
      ],
      "name": "图层01.003",
      "translation": [
        0,
        -0.000003337860107421875,
        0
      ]
    },
    {
      "children": [
        38
      ],
      "name": "组名1.003",
      "rotation": [
        -0.70710688829422,
        0,
        0,
        0.7071066498756409
      ]
    },
    {
      "children": [
        39
      ],
      "name": "RootNode"
    },
    {
      "children": [
        40
      ],
      "name": "6珠",
      "rotation": [
        0.5000161528587341,
        -0.5000161528587341,
        0.49998384714126587,
        0.49998384714126587
      ],
      "scale": [
        0.0010000000474974513,
        0.0010000000474974513,
        0.0010000000474974513
      ],
      "translation": [
        0,
        0.0502999983727932,
        -0.05000000074505806
      ]
    },
    {
      "children": [
        41
      ],
      "name": "Default.004"
    },
    {
      "children": [
        42
      ],
      "name": "lux_root.004"
    },
    {
      "name": "JewelCAD.003"
    },
    {
      "children": [
        44
      ],
      "name": "1(1)(1).002",
      "rotation": [
        0.70710688829422,
        0,
        0,
        0.7071066498756409
      ],
      "scale": [
        999.9999389648438,
        999.9996948242188,
        999.9996948242188
      ],
      "translation": [
        0,
        49.99998092651367,
        0
      ]
    },
    {
      "children": [
        45
      ],
      "name": "Default.005"
    },
    {
      "children": [
        46
      ],
      "name": "lux_root.005",
      "scale": [
        0.0010000000474974513,
        0.0010000000474974513,
        0.0010000000474974513
      ]
    },
    {
      "name": "Group.002"
    },
    {
      "children": [
        48
      ],
      "name": "图层01.004"
    },
    {
      "children": [
        49
      ],
      "name": "组名1.004"
    },
    {
      "children": [
        50
      ],
      "name": "1珠(1).002",
      "scale": [
        999.9999389648438,
        999.9999389648438,
        999.9999389648438
      ],
      "translation": [
        0,
        3.0508334636688232,
        0
      ]
    },
    {
      "children": [
        51
      ],
      "name": "Default.006"
    },
    {
      "children": [
        52
      ],
      "name": "lux_root.006",
      "scale": [
        0.0010000000474974513,
        0.0010000000474974513,
        0.0010000000474974513
      ]
    },
    {
      "name": "默认值",
      "scale": [
        0.0010000000474974513,
        0.0010000000474974513,
        0.0010000000474974513
      ]
    },
    {
      "name": "图层01.006"
    },
    {
      "children": [
        55
      ],
      "name": "组名1.006",
      "scale": [
        0.0010000000474974513,
        0.0010000000474974513,
        0.0010000000474974513
      ]
    },
    {
      "name": "图层05.001"
    },
    {
      "children": [
        57
      ],
      "name": "组名2.001",
      "scale": [
        0.0010000000474974513,
        0.0010000000474974513,
        0.0010000000474974513
      ]
    },
    {
      "name": "红宝石"
    },
    {
      "children": [
        59
      ],
      "name": "图层09.001"
    },
    {
      "children": [
        60
      ],
      "name": "组名3.001",
      "scale": [
        0.0010000000474974513,
        0.0010000000474974513,
        0.0010000000474974513
      ]
    },
    {
      "name": "图层17.001"
    },
    {
      "children": [
        62
      ],
      "name": "组名5.001",
      "scale": [
        0.0010000000474974513,
        0.0010000000474974513,
        0.0010000000474974513
      ]
    },
    {
      "name": "组名1::图层01"
    },
    {
      "children": [
        64
      ],
      "name": "JFRBooleanObject_DoNotDelete",
      "scale": [
        0.0010000000474974513,
        0.0010000000474974513,
        0.0010000000474974513
      ]
    },
    {
      "name": "JewelCAD.004"
    },
    {
      "children": [
        66
      ],
      "name": "1(1)(1).003",
      "rotation": [
        0.70710688829422,
        0,
        0,
        0.7071066498756409
      ],
      "scale": [
        999.9999389648438,
        999.9996337890625,
        999.9996337890625
      ],
      "translation": [
        0,
        49.99998092651367,
        0
      ]
    },
    {
      "children": [
        67
      ],
      "name": "Default.007"
    },
    {
      "children": [
        68
      ],
      "name": "lux_root.007",
      "scale": [
        0.0010000000474974513,
        0.0010000000474974513,
        0.0010000000474974513
      ]
    },
    {
      "name": "图层 01.002",
      "scale": [
        0.009999999776482582,
        0.009999999776482582,
        0.009999999776482582
      ],
      "translation": [
        0.0001353202824248001,
        0.000027473084628582,
        0.0000631883303867653
      ]
    },
    {
      "name": "图层 01",
      "scale": [
        0.009999999776482582,
        0.009999999776482582,
        0.009999999776482582
      ],
      "translation": [
        0.0001353202824248001,
        0.000027473084628582,
        0.0000631883303867653
      ]
    },
    {
      "mesh": 0,
      "name": "JewelCAD",
      "scale": [
        0.07117438316345215,
        0.07539203763008118,
        0.07508634775876999
      ]
    },
    {
      "children": [
        72
      ],
      "name": "图层 01.003",
      "scale": [
        0.009999999776482582,
        0.009999999776482582,
        0.009999999776482582
      ]
    },
    {
      "name": "图层01.007"
    },
    {
      "children": [
        74
      ],
      "name": "组名1.007",
      "scale": [
        0.009999999776482582,
        0.009999999776482582,
        0.009999999776482582
      ]
    },
    {
      "name": "图层05.002"
    },
    {
      "children": [
        76
      ],
      "name": "组名2.002",
      "scale": [
        0.009999999776482582,
        0.009999999776482582,
        0.009999999776482582
      ]
    },
    {
      "name": "图层09.002"
    },
    {
      "children": [
        78
      ],
      "name": "组名3.002",
      "scale": [
        0.009999999776482582,
        0.009999999776482582,
        0.009999999776482582
      ]
    },
    {
      "name": "图层17.002"
    },
    {
      "children": [
        80
      ],
      "name": "组名5.002",
      "scale": [
        0.009999999776482582,
        0.009999999776482582,
        0.009999999776482582
      ]
    },
    {
      "name": "物件_430.005",
      "translation": [
        -0.000011444091796875,
        0,
        0
      ]
    },
    {
      "children": [
        82
      ],
      "name": "物件_430.004",
      "translation": [
        -0.00000762939453125,
        0,
        0
      ]
    },
    {
      "children": [
        83
      ],
      "name": "图层01.008",
      "translation": [
        -0.00000762939453125,
        0,
        0
      ]
    },
    {
      "children": [
        84
      ],
      "name": "组名1.008",
      "rotation": [
        -0.70710688829422,
        0,
        0,
        0.7071066498756409
      ],
      "translation": [
        -0.00000762939453125,
        0,
        -0.0000152587890625
      ]
    },
    {
      "children": [
        85
      ],
      "name": "RootNode.002",
      "translation": [
        -0.0000152587890625,
        0,
        -0.0000152587890625
      ]
    },
    {
      "children": [
        86
      ],
      "name": "6珠.002",
      "scale": [
        0.0010000000474974513,
        0.0010000000474974513,
        0.0010000000474974513
      ],
      "translation": [
        -0.05000314861536026,
        0.0041014146991074085,
        -0.046195127069950104
      ]
    },
    {
      "children": [
        87
      ],
      "name": "Default.009"
    },
    {
      "name": "JewelCAD.005"
    },
    {
      "children": [
        89
      ],
      "name": "1(1)(1).004",
      "rotation": [
        0.70710688829422,
        0,
        0,
        0.7071066498756409
      ],
      "scale": [
        999.9999389648438,
        999.999755859375,
        999.999755859375
      ],
      "translation": [
        0,
        49.99998092651367,
        0
      ]
    },
    {
      "children": [
        90
      ],
      "name": "Default.010"
    },
    {
      "children": [
        91
      ],
      "name": "lux_root.008",
      "scale": [
        0.0010000000474974513,
        0.0010000000474974513,
        0.0010000000474974513
      ]
    },
    {
      "name": "Group.003"
    },
    {
      "children": [
        93
      ],
      "name": "图层01.009"
    },
    {
      "children": [
        94
      ],
      "name": "组名1.009"
    },
    {
      "children": [
        95
      ],
      "name": "1珠(1).003",
      "rotation": [
        0,
        -0.008480647578835487,
        0,
        0.9999640583992004
      ],
      "scale": [
        1000.0001220703125,
        999.9999389648438,
        1000.0001220703125
      ],
      "translation": [
        0,
        3.0508334636688232,
        0
      ]
    },
    {
      "children": [
        96
      ],
      "name": "Default.011"
    },
    {
      "children": [
        97
      ],
      "name": "lux_root.009",
      "scale": [
        0.0010000000474974513,
        0.0010000000474974513,
        0.0010000000474974513
      ]
    },
    {
      "name": "JewelCAD.006"
    },
    {
      "children": [
        99
      ],
      "name": "1(1)(1).005",
      "rotation": [
        0.70710688829422,
        0,
        0,
        0.7071066498756409
      ],
      "scale": [
        999.9999389648438,
        999.9996948242188,
        999.9996948242188
      ],
      "translation": [
        0,
        49.99998092651367,
        0
      ]
    },
    {
      "children": [
        100
      ],
      "name": "Default.012"
    },
    {
      "children": [
        101
      ],
      "name": "lux_root.010",
      "scale": [
        0.0010000000474974513,
        0.0010000000474974513,
        0.0010000000474974513
      ]
    },
    {
      "name": "Group.004"
    },
    {
      "children": [
        103
      ],
      "name": "图层01.010"
    },
    {
      "children": [
        104
      ],
      "name": "组名1.010"
    },
    {
      "children": [
        105
      ],
      "name": "1珠(1).004",
      "rotation": [
        0,
        -0.008480647578835487,
        0,
        0.9999640583992004
      ],
      "scale": [
        1000.0001220703125,
        999.9999389648438,
        1000.0001220703125
      ],
      "translation": [
        0,
        3.0508334636688232,
        0
      ]
    },
    {
      "children": [
        106
      ],
      "name": "Default.013"
    },
    {
      "children": [
        107
      ],
      "name": "lux_root.011",
      "scale": [
        0.0010000000474974513,
        0.0010000000474974513,
        0.0010000000474974513
      ]
    },
    {
      "name": "物件_430.007",
      "translation": [
        0,
        -0.000003337860107421875,
        0
      ]
    },
    {
      "children": [
        109
      ],
      "name": "物件_430.006",
      "translation": [
        0,
        -0.000003337860107421875,
        0
      ]
    },
    {
      "children": [
        110
      ],
      "name": "图层01.011",
      "translation": [
        0,
        -0.000003337860107421875,
        0
      ]
    },
    {
      "children": [
        111
      ],
      "name": "组名1.011",
      "rotation": [
        -0.70710688829422,
        0,
        0,
        0.7071066498756409
      ]
    },
    {
      "children": [
        112
      ],
      "name": "RootNode.003"
    },
    {
      "children": [
        113
      ],
      "name": "6珠.003",
      "rotation": [
        0.5000161528587341,
        -0.5000161528587341,
        0.49998384714126587,
        0.49998384714126587
      ],
      "scale": [
        0.0010000000474974513,
        0.0010000000474974513,
        0.0010000000474974513
      ],
      "translation": [
        0,
        0.0502999983727932,
        -0.05000000074505806
      ]
    },
    {
      "children": [
        114
      ],
      "name": "Default.014"
    },
    {
      "children": [
        115
      ],
      "name": "lux_root.012"
    },
    {
      "name": "JewelCAD.007"
    },
    {
      "children": [
        117
      ],
      "name": "1(1)(1).006",
      "rotation": [
        0.70710688829422,
        0,
        0,
        0.7071066498756409
      ],
      "scale": [
        999.9999389648438,
        999.9996948242188,
        999.9996948242188
      ],
      "translation": [
        0,
        49.99998092651367,
        0
      ]
    },
    {
      "children": [
        118
      ],
      "name": "Default.015"
    },
    {
      "children": [
        119
      ],
      "name": "lux_root.013",
      "scale": [
        0.0010000000474974513,
        0.0010000000474974513,
        0.0010000000474974513
      ]
    },
    {
      "name": "Group.005"
    },
    {
      "children": [
        121
      ],
      "name": "图层01.012"
    },
    {
      "children": [
        122
      ],
      "name": "组名1.012"
    },
    {
      "children": [
        123
      ],
      "name": "1珠(1).005",
      "scale": [
        999.9999389648438,
        999.9999389648438,
        999.9999389648438
      ],
      "translation": [
        0,
        3.0508334636688232,
        0
      ]
    },
    {
      "children": [
        124
      ],
      "name": "Default.016"
    },
    {
      "children": [
        125
      ],
      "name": "lux_root.014",
      "scale": [
        0.0010000000474974513,
        0.0010000000474974513,
        0.0010000000474974513
      ]
    },
    {
      "name": "默认值.001",
      "scale": [
        0.0010000000474974513,
        0.0010000000474974513,
        0.0010000000474974513
      ]
    },
    {
      "name": "图层01.013"
    },
    {
      "children": [
        128
      ],
      "name": "组名1.013",
      "scale": [
        0.0010000000474974513,
        0.0010000000474974513,
        0.0010000000474974513
      ]
    },
    {
      "name": "图层05.003"
    },
    {
      "children": [
        130
      ],
      "name": "组名2.003",
      "scale": [
        0.0010000000474974513,
        0.0010000000474974513,
        0.0010000000474974513
      ]
    },
    {
      "name": "红宝石.001"
    },
    {
      "children": [
        132
      ],
      "name": "图层09.003"
    },
    {
      "children": [
        133
      ],
      "name": "组名3.003",
      "scale": [
        0.0010000000474974513,
        0.0010000000474974513,
        0.0010000000474974513
      ]
    },
    {
      "name": "图层17.003"
    },
    {
      "children": [
        135
      ],
      "name": "组名5.003",
      "scale": [
        0.0010000000474974513,
        0.0010000000474974513,
        0.0010000000474974513
      ]
    },
    {
      "name": "组名1::图层01.001"
    },
    {
      "children": [
        137
      ],
      "name": "JFRBooleanObject_DoNotDelete.001",
      "scale": [
        0.0010000000474974513,
        0.0010000000474974513,
        0.0010000000474974513
      ]
    },
    {
      "name": "JewelCAD.008"
    },
    {
      "children": [
        139
      ],
      "name": "1(1)(1).007",
      "rotation": [
        0.70710688829422,
        0,
        0,
        0.7071066498756409
      ],
      "scale": [
        999.9999389648438,
        999.9996337890625,
        999.9996337890625
      ],
      "translation": [
        0,
        49.99998092651367,
        0
      ]
    },
    {
      "children": [
        140
      ],
      "name": "Default.017"
    },
    {
      "children": [
        141
      ],
      "name": "lux_root.015",
      "scale": [
        0.0010000000474974513,
        0.0010000000474974513,
        0.0010000000474974513
      ]
    },
    {
      "name": "图层 01.004",
      "scale": [
        0.009999999776482582,
        0.009999999776482582,
        0.009999999776482582
      ],
      "translation": [
        0.0001353202824248001,
        0.000027473084628582,
        0.0000631883303867653
      ]
    },
    {
      "name": "图层 01.005",
      "scale": [
        0.009999999776482582,
        0.009999999776482582,
        0.009999999776482582
      ],
      "translation": [
        0.0001353202824248001,
        0.000027473084628582,
        0.0000631883303867653
      ]
    }
  ],
  "materials": [
    {
      "doubleSided": true,
      "extensions": {
        "KHR_materials_specular": {
          "specularColorFactor": [
            2,
            2,
            2
          ]
        },
        "KHR_materials_ior": {
          "ior": 1.5399999618530273
        }
      },
      "name": "材质_1.001",
      "pbrMetallicRoughness": {
        "baseColorFactor": [
          0.8101325035095215,
          0.8101325035095215,
          0.8101325035095215,
          1
        ],
        "metallicFactor": 0,
        "roughnessFactor": 0.12273457646369934
      }
    }
  ],
  "meshes": [
    {
      "name": "JewelCAD.001",
      "primitives": [
        {
          "attributes": {
            "POSITION": 0,
            "NORMAL": 1
          },
          "indices": 2,
          "material": 0
        }
      ]
    }
  ],
  "accessors": [
    {
      "bufferView": 0,
      "componentType": 5126,
      "count": 8783,
      "max": [
        2.809999942779541,
        3.9791998863220215,
        3.9953999519348145
      ],
      "min": [
        -2.809999942779541,
        -3.9791998863220215,
        -3.9953999519348145
      ],
      "type": "VEC3"
    },
    {
      "bufferView": 1,
      "componentType": 5126,
      "count": 8783,
      "type": "VEC3"
    },
    {
      "bufferView": 2,
      "componentType": 5123,
      "count": 32256,
      "type": "SCALAR"
    }
  ],
  "bufferViews": [
    {
      "buffer": 0,
      "byteLength": 105396,
      "byteOffset": 0,
      "target": 34962
    },
    {
      "buffer": 0,
      "byteLength": 105396,
      "byteOffset": 105396,
      "target": 34962
    },
    {
      "buffer": 0,
      "byteLength": 64512,
      "byteOffset": 210792,
      "target": 34963
    }
  ],
  "buffers": [
    {
      "uri": "白药片_data.bin",
      "byteLength": 275304
    }
  ]
}