{
  "asset": {
    "generator": "Khronos glTF Blender I/O v4.5.49",
    "version": "2.0"
  },
  "scene": 0,
  "scenes": [
    {
      "name": "Scene",
      "nodes": [
        7,
        11,
        17,
        21,
        27,
        35,
        39,
        45,
        46,
        48,
        50,
        53,
        55,
        57,
        61
      ]
    }
  ],
  "nodes": [
    {
      "mesh": 0,
      "name": "物件_430.004",
      "rotation": [
        1,
        0,
        0,
        0
      ],
      "scale": [
        0.8450037837028503,
        0.8533641695976257,
        0.8533641695976257
      ],
      "translation": [
        -0.000003814697265625,
        0,
        0
      ]
    },
    {
      "children": [
        0
      ],
      "name": "物件_430.003",
      "translation": [
        -0.000003814697265625,
        0,
        0
      ]
    },
    {
      "children": [
        1
      ],
      "name": "物件_430.002",
      "translation": [
        -0.000003814697265625,
        0,
        0
      ]
    },
    {
      "children": [
        2
      ],
      "name": "图层01.005",
      "translation": [
        -0.000003814697265625,
        0,
        0
      ]
    },
    {
      "children": [
        3
      ],
      "name": "组名1.005",
      "rotation": [
        -0.70710688829422,
        0,
        0,
        0.7071066498756409
      ],
      "translation": [
        -0.000003814697265625,
        0,
        -0.00000762939453125
      ]
    },
    {
      "children": [
        4
      ],
      "name": "RootNode.001",
      "translation": [
        -0.00000762939453125,
        0,
        -0.00000762939453125
      ]
    },
    {
      "children": [
        5
      ],
      "name": "6珠.001",
      "scale": [
        0.0010000000474974513,
        0.0010000000474974513,
        0.0010000000474974513
      ],
      "translation": [
        -0.05000314861536026,
        0.0041014146991074085,
        -0.046195127069950104
      ]
    },
    {
      "children": [
        6
      ],
      "name": "Default.008"
    },
    {
      "name": "JewelCAD"
    },
    {
      "children": [
        8
      ],
      "name": "1(1)(1)",
      "rotation": [
        0.70710688829422,
        0,
        0,
        0.7071066498756409
      ],
      "scale": [
        999.9999389648438,
        999.9998779296875,
        999.9998779296875
      ],
      "translation": [
        0,
        49.9999885559082,
        0
      ]
    },
    {
      "children": [
        9
      ],
      "name": "Default"
    },
    {
      "children": [
        10
      ],
      "name": "lux_root",
      "scale": [
        0.0010000000474974513,
        0.0010000000474974513,
        0.0010000000474974513
      ]
    },
    {
      "name": "Group"
    },
    {
      "children": [
        12
      ],
      "name": "图层01"
    },
    {
      "children": [
        13
      ],
      "name": "组名1"
    },
    {
      "children": [
        14
      ],
      "name": "1珠(1)",
      "rotation": [
        0,
        -0.008480645716190338,
        0,
        0.9999640583992004
      ],
      "scale": [
        1000.0001220703125,
        999.9999389648438,
        1000.0001220703125
      ],
      "translation": [
        0,
        3.0508334636688232,
        0
      ]
    },
    {
      "children": [
        15
      ],
      "name": "Default.001"
    },
    {
      "children": [
        16
      ],
      "name": "lux_root.001",
      "scale": [
        0.0010000000474974513,
        0.0010000000474974513,
        0.0010000000474974513
      ]
    },
    {
      "name": "JewelCAD.001"
    },
    {
      "children": [
        18
      ],
      "name": "1(1)(1).001",
      "rotation": [
        0.70710688829422,
        0,
        0,
        0.7071066498756409
      ],
      "scale": [
        999.9999389648438,
        999.9998168945312,
        999.9998168945312
      ],
      "translation": [
        0,
        49.99998474121094,
        0
      ]
    },
    {
      "children": [
        19
      ],
      "name": "Default.002"
    },
    {
      "children": [
        20
      ],
      "name": "lux_root.002",
      "scale": [
        0.0010000000474974513,
        0.0010000000474974513,
        0.0010000000474974513
      ]
    },
    {
      "name": "Group.001"
    },
    {
      "children": [
        22
      ],
      "name": "图层01.001"
    },
    {
      "children": [
        23
      ],
      "name": "组名1.001"
    },
    {
      "children": [
        24
      ],
      "name": "1珠(1).001",
      "rotation": [
        0,
        -0.008480645716190338,
        0,
        0.9999640583992004
      ],
      "scale": [
        1000.0001220703125,
        999.9999389648438,
        1000.0001220703125
      ],
      "translation": [
        0,
        3.0508334636688232,
        0
      ]
    },
    {
      "children": [
        25
      ],
      "name": "Default.003"
    },
    {
      "children": [
        26
      ],
      "name": "lux_root.003",
      "scale": [
        0.0010000000474974513,
        0.0010000000474974513,
        0.0010000000474974513
      ]
    },
    {
      "name": "物件_430.001",
      "translation": [
        0,
        -0.000003337860107421875,
        0
      ]
    },
    {
      "children": [
        28
      ],
      "name": "物件_430",
      "translation": [
        0,
        -0.000003337860107421875,
        0
      ]
    },
    {
      "children": [
        29
      ],
      "name": "图层01.002",
      "translation": [
        0,
        -0.000003337860107421875,
        0
      ]
    },
    {
      "children": [
        30
      ],
      "name": "组名1.002",
      "rotation": [
        -0.70710688829422,
        0,
        0,
        0.7071066498756409
      ]
    },
    {
      "children": [
        31
      ],
      "name": "RootNode"
    },
    {
      "children": [
        32
      ],
      "name": "6珠",
      "rotation": [
        0.5000161528587341,
        -0.5000161528587341,
        0.49998384714126587,
        0.49998384714126587
      ],
      "scale": [
        0.0010000000474974513,
        0.0010000000474974513,
        0.0010000000474974513
      ],
      "translation": [
        0,
        0.0502999983727932,
        -0.05000000074505806
      ]
    },
    {
      "children": [
        33
      ],
      "name": "Default.004"
    },
    {
      "children": [
        34
      ],
      "name": "lux_root.004"
    },
    {
      "name": "JewelCAD.002"
    },
    {
      "children": [
        36
      ],
      "name": "1(1)(1).002",
      "rotation": [
        0.70710688829422,
        0,
        0,
        0.7071066498756409
      ],
      "scale": [
        999.9999389648438,
        999.9998168945312,
        999.9998168945312
      ],
      "translation": [
        0,
        49.99998474121094,
        0
      ]
    },
    {
      "children": [
        37
      ],
      "name": "Default.005"
    },
    {
      "children": [
        38
      ],
      "name": "lux_root.005",
      "scale": [
        0.0010000000474974513,
        0.0010000000474974513,
        0.0010000000474974513
      ]
    },
    {
      "name": "Group.002"
    },
    {
      "children": [
        40
      ],
      "name": "图层01.003"
    },
    {
      "children": [
        41
      ],
      "name": "组名1.003"
    },
    {
      "children": [
        42
      ],
      "name": "1珠(1).002",
      "scale": [
        999.9999389648438,
        999.9999389648438,
        999.9999389648438
      ],
      "translation": [
        0,
        3.0508334636688232,
        0
      ]
    },
    {
      "children": [
        43
      ],
      "name": "Default.006"
    },
    {
      "children": [
        44
      ],
      "name": "lux_root.006",
      "scale": [
        0.0010000000474974513,
        0.0010000000474974513,
        0.0010000000474974513
      ]
    },
    {
      "name": "默认值",
      "scale": [
        0.0010000000474974513,
        0.0010000000474974513,
        0.0010000000474974513
      ]
    },
    {
      "name": "图层01.004"
    },
    {
      "children": [
        47
      ],
      "name": "组名1.004",
      "scale": [
        0.0010000000474974513,
        0.0010000000474974513,
        0.0010000000474974513
      ]
    },
    {
      "name": "图层05"
    },
    {
      "children": [
        49
      ],
      "name": "组名2",
      "scale": [
        0.0010000000474974513,
        0.0010000000474974513,
        0.0010000000474974513
      ]
    },
    {
      "name": "红宝石"
    },
    {
      "children": [
        51
      ],
      "name": "图层09"
    },
    {
      "children": [
        52
      ],
      "name": "组名3",
      "scale": [
        0.0010000000474974513,
        0.0010000000474974513,
        0.0010000000474974513
      ]
    },
    {
      "name": "图层17"
    },
    {
      "children": [
        54
      ],
      "name": "组名5",
      "scale": [
        0.0010000000474974513,
        0.0010000000474974513,
        0.0010000000474974513
      ]
    },
    {
      "name": "组名1::图层01"
    },
    {
      "children": [
        56
      ],
      "name": "JFRBooleanObject_DoNotDelete",
      "scale": [
        0.0010000000474974513,
        0.0010000000474974513,
        0.0010000000474974513
      ]
    },
    {
      "name": "JewelCAD.003"
    },
    {
      "children": [
        58
      ],
      "name": "1(1)(1).003",
      "rotation": [
        0.70710688829422,
        0,
        0,
        0.7071066498756409
      ],
      "scale": [
        999.9999389648438,
        999.999755859375,
        999.999755859375
      ],
      "translation": [
        0,
        49.99998092651367,
        0
      ]
    },
    {
      "children": [
        59
      ],
      "name": "Default.007"
    },
    {
      "children": [
        60
      ],
      "name": "lux_root.007",
      "scale": [
        0.0010000000474974513,
        0.0010000000474974513,
        0.0010000000474974513
      ]
    }
  ],
  "materials": [
    {
      "doubleSided": true,
      "name": "Material.001",
      "pbrMetallicRoughness": {
        "baseColorFactor": [
          0.9843753576278687,
          0.6337409615516663,
          0,
          1
        ],
        "roughnessFactor": 0.40061870217323303
      }
    }
  ],
  "meshes": [
    {
      "name": "物件_430-mesh",
      "primitives": [
        {
          "attributes": {
            "POSITION": 0,
            "NORMAL": 1
          },
          "indices": 2,
          "material": 0
        }
      ]
    }
  ],
  "accessors": [
    {
      "bufferView": 0,
      "componentType": 5126,
      "count": 116640,
      "max": [
        53.550445556640625,
        4.101414203643799,
        4.101414203643799
      ],
      "min": [
        46.449886322021484,
        -4.101414680480957,
        -4.101414680480957
      ],
      "type": "VEC3"
    },
    {
      "bufferView": 1,
      "componentType": 5126,
      "count": 116640,
      "type": "VEC3"
    },
    {
      "bufferView": 2,
      "componentType": 5125,
      "count": 116640,
      "type": "SCALAR"
    }
  ],
  "bufferViews": [
    {
      "buffer": 0,
      "byteLength": 1399680,
      "byteOffset": 0,
      "target": 34962
    },
    {
      "buffer": 0,
      "byteLength": 1399680,
      "byteOffset": 1399680,
      "target": 34962
    },
    {
      "buffer": 0,
      "byteLength": 466560,
      "byteOffset": 2799360,
      "target": 34963
    }
  ],
  "buffers": [
    {
      "uri": "磨砂珠6mm_data.bin",
      "byteLength": 3265920
    }
  ]
}