{
  "extensionsUsed": [
    "KHR_materials_transmission",
    "KHR_materials_clearcoat",
    "KHR_materials_ior",
    "KHR_materials_specular",
    "KHR_materials_emissive_strength",
    "KHR_texture_transform"
  ],
  "accessors": [
    {
      "bufferView": 0,
      "componentType": 5126,
      "count": 6400,
      "type": "VEC3",
      "max": [
        0.01835,
        0.00029989998,
        0.0183418
      ],
      "min": [
        -0.01835,
        -0.00029989998,
        -0.0183418
      ]
    },
    {
      "bufferView": 1,
      "componentType": 5125,
      "count": 38400,
      "type": "SCALAR",
      "max": [
        6399
      ],
      "min": [
        0
      ]
    },
    {
      "bufferView": 2,
      "componentType": 5126,
      "count": 6400,
      "type": "VEC3",
      "max": [
        1,
        0.9999999,
        1
      ],
      "min": [
        -1,
        -0.9999999,
        -1
      ]
    }
  ],
  "asset": {
    "version": "2.0"
  },
  "buffers": [
    {
      "uri": "1_data.bin",
      "byteLength": 307200
    }
  ],
  "bufferViews": [
    {
      "buffer": 0,
      "byteLength": 76800,
      "target": 34962,
      "byteOffset": 0
    },
    {
      "buffer": 0,
      "byteOffset": 76800,
      "byteLength": 153600,
      "target": 34963
    },
    {
      "buffer": 0,
      "byteOffset": 230400,
      "byteLength": 76800,
      "target": 34962
    }
  ],
  "materials": [
    {
      "pbrMetallicRoughness": {
        "baseColorFactor": [
          0,
          0.50980395,
          0.33333334,
          1
        ]
      }
    }
  ],
  "meshes": [
    {
      "primitives": [
        {
          "attributes": {
            "POSITION": 0,
            "NORMAL": 2
          },
          "indices": 1,
          "material": 0
        }
      ]
    }
  ],
  "nodes": [
    {
      "mesh": 0,
      "name": "JewelCAD"
    }
  ],
  "samplers": [
    {
      "magFilter": 9729,
      "minFilter": 9729
    }
  ],
  "scene": 0,
  "scenes": [
    {
      "nodes": [
        0
      ],
      "extensions": {}
    }
  ],
  "extensions": {}
}