{
  "extensionsUsed": [
    "KHR_materials_transmission",
    "KHR_materials_clearcoat",
    "KHR_materials_ior",
    "KHR_materials_specular",
    "KHR_materials_emissive_strength",
    "KHR_texture_transform"
  ],
  "accessors": [
    {
      "bufferView": 0,
      "componentType": 5126,
      "count": 7857,
      "type": "VEC3",
      "max": [
        0.0020504168,
        0.0030508335,
        0.0030508335
      ],
      "min": [
        -0.0020504168,
        -0.0030508335,
        -0.0030508335
      ]
    },
    {
      "bufferView": 1,
      "componentType": 5125,
      "count": 46080,
      "type": "SCALAR",
      "max": [
        7856
      ],
      "min": [
        0
      ]
    },
    {
      "bufferView": 2,
      "componentType": 5126,
      "count": 7857,
      "type": "VEC3",
      "max": [
        0.9999998,
        1,
        1
      ],
      "min": [
        -0.9999998,
        -1,
        -1
      ]
    },
    {
      "bufferView": 3,
      "componentType": 5126,
      "count": 7857,
      "type": "VEC2",
      "max": [
        1,
        1
      ],
      "min": [
        0,
        0
      ]
    }
  ],
  "asset": {
    "version": "2.0"
  },
  "buffers": [
    {
      "uri": "1珠_data.bin",
      "byteLength": 435744
    }
  ],
  "bufferViews": [
    {
      "buffer": 0,
      "byteLength": 94284,
      "target": 34962,
      "byteOffset": 0
    },
    {
      "buffer": 0,
      "byteOffset": 94284,
      "byteLength": 184320,
      "target": 34963
    },
    {
      "buffer": 0,
      "byteOffset": 278604,
      "byteLength": 94284,
      "target": 34962
    },
    {
      "buffer": 0,
      "byteOffset": 372888,
      "byteLength": 62856,
      "target": 34962
    }
  ],
  "images": [
    {
      "uri": "1珠_img0.png"
    }
  ],
  "materials": [
    {
      "name": "5G黄金",
      "extensions": {
        "KHR_materials_transmission": {},
        "KHR_materials_clearcoat": {},
        "KHR_materials_ior": {
          "ior": 1
        },
        "KHR_materials_specular": {
          "specularFactor": 0.5,
          "specularColorFactor": [
            1,
            1,
            1
          ]
        }
      },
      "pbrMetallicRoughness": {
        "baseColorTexture": {
          "index": 0,
          "extensions": {
            "KHR_texture_transform": {
              "offset": [
                0,
                1
              ],
              "scale": [
                1,
                -1
              ]
            }
          }
        },
        "metallicFactor": 0
      }
    }
  ],
  "meshes": [
    {
      "primitives": [
        {
          "attributes": {
            "POSITION": 0,
            "NORMAL": 2,
            "TEXCOORD_0": 3
          },
          "indices": 1,
          "material": 0
        }
      ]
    }
  ],
  "nodes": [
    {
      "mesh": 0
    },
    {
      "children": [
        0
      ],
      "name": "图层01"
    },
    {
      "children": [
        1
      ],
      "name": "组名1"
    }
  ],
  "samplers": [
    {
      "magFilter": 9729,
      "minFilter": 9729
    }
  ],
  "scene": 0,
  "scenes": [
    {
      "nodes": [
        2
      ],
      "extensions": {}
    }
  ],
  "textures": [
    {
      "sampler": 0,
      "source": 0
    }
  ],
  "extensions": {}
}