{
  "accessors": [
    {
      "bufferView": 0,
      "componentType": 5126,
      "count": 7857,
      "max": [
        0.0020504167769104242,
        0.003050833474844694,
        0.003050833474844694
      ],
      "min": [
        -0.0020504167769104242,
        -0.003050833474844694,
        -0.003050833474844694
      ],
      "type": "VEC3"
    },
    {
      "bufferView": 1,
      "componentType": 5126,
      "count": 7857,
      "type": "VEC3"
    },
    {
      "bufferView": 2,
      "componentType": 5125,
      "count": 46080,
      "type": "SCALAR"
    }
  ],
  "asset": {
    "generator": "Luxion KeyShot",
    "version": "2.0"
  },
  "bufferViews": [
    {
      "buffer": 0,
      "byteLength": 94284,
      "byteOffset": 0,
      "byteStride": 12
    },
    {
      "buffer": 0,
      "byteLength": 94284,
      "byteOffset": 94284,
      "byteStride": 12
    },
    {
      "buffer": 0,
      "byteLength": 184320,
      "byteOffset": 188568
    }
  ],
  "buffers": [
    {
      "uri": "321_data.bin",
      "byteLength": 372888
    }
  ],
  "cameras": [
    {
      "name": "active",
      "perspective": {
        "aspectRatio": 1,
        "yfov": 0.43833943764363426,
        "zfar": 35.02871322631836,
        "znear": 28.32486915588379
      },
      "type": "perspective"
    },
    {
      "name": "Perspective",
      "perspective": {
        "aspectRatio": 1,
        "yfov": 0.43833943764363426,
        "zfar": 142.0970458984375,
        "znear": 132.82830810546875
      },
      "type": "perspective"
    },
    {
      "name": "Top",
      "perspective": {
        "aspectRatio": 1,
        "yfov": 0.43833943764363426,
        "zfar": 19.555814743041992,
        "znear": 15.454981803894043
      },
      "type": "perspective"
    },
    {
      "name": "Front",
      "perspective": {
        "aspectRatio": 1,
        "yfov": 0.43833943764363426,
        "zfar": 28.50443458557129,
        "znear": 22.402767181396484
      },
      "type": "perspective"
    },
    {
      "name": "Right",
      "perspective": {
        "aspectRatio": 1,
        "yfov": 0.43833943764363426,
        "zfar": 0.10000000149011612,
        "znear": 0.0010000000474974513
      },
      "type": "perspective"
    },
    {
      "name": "Perspective #1",
      "perspective": {
        "aspectRatio": 1,
        "yfov": 0.43833943764363426,
        "zfar": 103.765380859375,
        "znear": 94.49663543701172
      },
      "type": "perspective"
    },
    {
      "name": "Top #1",
      "perspective": {
        "aspectRatio": 1,
        "yfov": 0.43833943764363426,
        "zfar": 82.2627182006836,
        "znear": 78.1618881225586
      },
      "type": "perspective"
    },
    {
      "name": "Front #1",
      "perspective": {
        "aspectRatio": 1,
        "yfov": 0.43833943764363426,
        "zfar": 83.26313781738281,
        "znear": 77.16146850585938
      },
      "type": "perspective"
    },
    {
      "name": "Right #1",
      "perspective": {
        "aspectRatio": 1,
        "yfov": 0.43833943764363426,
        "zfar": 0.10000000149011612,
        "znear": 0.0010000000474974513
      },
      "type": "perspective"
    }
  ],
  "materials": [
    {
      "doubleSided": true,
      "name": "5G黄金 #1",
      "pbrMetallicRoughness": {
        "baseColorFactor": [
          0.9843753576278687,
          0.6337409615516663,
          0,
          1
        ],
        "metallicFactor": 1,
        "roughnessFactor": 0.11025979369878769
      }
    }
  ],
  "meshes": [
    {
      "name": "Mesh-mesh",
      "primitives": [
        {
          "attributes": {
            "NORMAL": 1,
            "POSITION": 0
          },
          "indices": 2,
          "material": 0,
          "mode": 4
        }
      ]
    }
  ],
  "nodes": [
    {
      "camera": 0,
      "matrix": [
        -0.0004148488283436246,
        -1.6714213346702423e-12,
        -0.000909890363503843,
        0,
        -0.00006844879066788208,
        0.0009971664206625064,
        0.00003120804448799259,
        0,
        0.0009073120951652527,
        0.0000752275139093399,
        -0.0004136733114719391,
        0,
        0.028694984436035156,
        0.005542884349822998,
        -0.01318435287475586,
        1
      ],
      "name": "active"
    },
    {
      "camera": 1,
      "matrix": [
        -0.0005590760242814765,
        0.0005000029158131166,
        -0.0006613857295493909,
        0,
        -0.0006613856238228096,
        -0.0007500041998935436,
        -0.000007921915307492906,
        0,
        -0.0005000030556644793,
        0.00043300206041090185,
        0.0007500041066594887,
        0,
        -0.06599559879302978,
        0.07284000015258789,
        0.09899389743804932,
        1
      ],
      "name": "Perspective"
    },
    {
      "camera": 2,
      "matrix": [
        3.70327786701817e-26,
        0.001,
        3.749394921448629e-36,
        0,
        -6.1232302924589e-20,
        3.7493971890509515e-36,
        -0.001,
        0,
        -0.001,
        3.70327786701817e-26,
        6.1232302924589e-20,
        0,
        -0.017505398750305178,
        0.00334760093688965,
        -0.014999799728393555,
        1
      ],
      "name": "Top"
    },
    {
      "camera": 3,
      "matrix": [
        -0.001,
        6.123233995736766e-20,
        6.1232302924589e-20,
        0,
        -6.123233995736766e-20,
        -0.001,
        -6.1232302924589e-20,
        0,
        6.1232302924589e-20,
        -6.1232302924589e-20,
        0.001,
        0,
        9.5367431640625e-10,
        0.015687800645828247,
        0.025453600883483887,
        1
      ],
      "name": "Front"
    },
    {
      "camera": 4,
      "matrix": [
        0.001,
        -6.123233995736766e-20,
        6.1232302924589e-20,
        0,
        -6.1232302924589e-20,
        3.7493971890509515e-36,
        0.001,
        0,
        -6.123233995736766e-20,
        -0.001,
        0,
        0,
        9.53674318182607e-10,
        0.035453800201416016,
        0,
        1
      ],
      "name": "Right"
    },
    {
      "camera": 5,
      "matrix": [
        -0.0005590760242814765,
        0.0005000029158131166,
        -0.0006613857295493909,
        0,
        -0.0006613856238228096,
        -0.0007500041998935436,
        -0.000007921915307492906,
        0,
        -0.0005000030556644793,
        0.00043300206041090185,
        0.0007500041066594887,
        0,
        -0.04978229928016663,
        0.045162121772766115,
        0.07467349982261658,
        1
      ],
      "name": "Perspective #1"
    },
    {
      "camera": 6,
      "matrix": [
        3.70327786701817e-26,
        0.001,
        3.749394921448629e-36,
        0,
        -6.1232302924589e-20,
        3.7493971890509515e-36,
        -0.001,
        0,
        -0.001,
        3.70327786701817e-26,
        6.1232302924589e-20,
        0,
        -0.08021230340003968,
        0.028285222053527837,
        0.00042386776208877563,
        1
      ],
      "name": "Top #1"
    },
    {
      "camera": 7,
      "matrix": [
        -0.001,
        6.123233995736766e-20,
        6.1232302924589e-20,
        0,
        -6.123233995736766e-20,
        -0.001,
        -6.1232302924589e-20,
        0,
        6.1232302924589e-20,
        -6.1232302924589e-20,
        0.001,
        0,
        -2.384185791015625e-10,
        0.0020506219863891603,
        0.08021230292320251,
        1
      ],
      "name": "Front #1"
    },
    {
      "camera": 8,
      "matrix": [
        0.001,
        -6.123233995736766e-20,
        6.1232302924589e-20,
        0,
        -6.1232302924589e-20,
        3.7493971890509515e-36,
        0.001,
        0,
        -6.123233995736766e-20,
        -0.001,
        0,
        0,
        -2.384185741899755e-10,
        0.08226292514801026,
        -2.384185791015625e-10,
        1
      ],
      "name": "Right #1"
    },
    {
      "mesh": 0,
      "name": "Mesh"
    },
    {
      "children": [
        9
      ],
      "name": "Group"
    },
    {
      "children": [
        10
      ],
      "name": "图层01"
    },
    {
      "children": [
        11
      ],
      "name": "组名1"
    },
    {
      "children": [
        12
      ],
      "matrix": [
        1000,
        0,
        0,
        0,
        0,
        1000,
        0,
        0,
        0,
        0,
        1000,
        0,
        0,
        3.050833474844694,
        0,
        1
      ],
      "name": "1珠(1)"
    },
    {
      "children": [
        13
      ],
      "name": "Default"
    },
    {
      "children": [
        14
      ],
      "matrix": [
        0.001,
        0,
        0,
        0,
        0,
        0.001,
        0,
        0,
        0,
        0,
        0.001,
        0,
        0,
        0,
        0,
        1
      ],
      "name": "lux_root"
    }
  ],
  "scenes": [
    {
      "nodes": [
        0,
        1,
        2,
        3,
        4,
        5,
        6,
        7,
        8,
        15
      ]
    }
  ]
}