{
  "asset": {
    "generator": "Khronos glTF Blender I/O v4.5.49",
    "version": "2.0"
  },
  "scene": 0,
  "scenes": [
    {
      "name": "Scene",
      "nodes": [
        3,
        10
      ]
    }
  ],
  "nodes": [
    {
      "name": "JewelCAD"
    },
    {
      "children": [
        0
      ],
      "name": "1(1)(1)",
      "rotation": [
        0.70710688829422,
        0,
        0,
        0.7071066498756409
      ],
      "scale": [
        999.9999389648438,
        1000.0000610351562,
        1000.0000610351562
      ],
      "translation": [
        0,
        49.999996185302734,
        0
      ]
    },
    {
      "children": [
        1
      ],
      "name": "Default"
    },
    {
      "children": [
        2
      ],
      "name": "lux_root",
      "scale": [
        0.0010000000474974513,
        0.0010000000474974513,
        0.0010000000474974513
      ]
    },
    {
      "mesh": 0,
      "name": "Mesh"
    },
    {
      "children": [
        4
      ],
      "name": "Group"
    },
    {
      "children": [
        5
      ],
      "name": "图层01"
    },
    {
      "children": [
        6
      ],
      "name": "组名1"
    },
    {
      "children": [
        7
      ],
      "name": "1珠(1)",
      "scale": [
        999.9999389648438,
        999.9999389648438,
        999.9999389648438
      ],
      "translation": [
        0,
        3.0508334636688232,
        0
      ]
    },
    {
      "children": [
        8
      ],
      "name": "Default.001"
    },
    {
      "children": [
        9
      ],
      "name": "lux_root.001",
      "scale": [
        0.0010000000474974513,
        0.0010000000474974513,
        0.0010000000474974513
      ]
    }
  ],
  "materials": [
    {
      "doubleSided": true,
      "name": "5G黄金 #1",
      "pbrMetallicRoughness": {
        "baseColorFactor": [
          0.9843753576278687,
          0.6337409615516663,
          0,
          1
        ],
        "roughnessFactor": 0.11025979369878769
      }
    }
  ],
  "meshes": [
    {
      "name": "Mesh-mesh.001",
      "primitives": [
        {
          "attributes": {
            "POSITION": 0,
            "NORMAL": 1
          },
          "indices": 2,
          "material": 0
        }
      ]
    }
  ],
  "accessors": [
    {
      "bufferView": 0,
      "componentType": 5126,
      "count": 7857,
      "max": [
        0.0020504167769104242,
        0.003050833474844694,
        0.003050833474844694
      ],
      "min": [
        -0.0020504167769104242,
        -0.003050833474844694,
        -0.003050833474844694
      ],
      "type": "VEC3"
    },
    {
      "bufferView": 1,
      "componentType": 5126,
      "count": 7857,
      "type": "VEC3"
    },
    {
      "bufferView": 2,
      "componentType": 5123,
      "count": 46080,
      "type": "SCALAR"
    }
  ],
  "bufferViews": [
    {
      "buffer": 0,
      "byteLength": 94284,
      "byteOffset": 0,
      "target": 34962
    },
    {
      "buffer": 0,
      "byteLength": 94284,
      "byteOffset": 94284,
      "target": 34962
    },
    {
      "buffer": 0,
      "byteLength": 92160,
      "byteOffset": 188568,
      "target": 34963
    }
  ],
  "buffers": [
    {
      "uri": "321_data.bin",
      "byteLength": 280728
    }
  ]
}