{"accessors":[{"bufferView":0,"componentType":5126,"count":6400,"max":[0.01834999956190586,0.0002998999843839556,0.018341800197958946],"min":[-0.01834999956190586,-0.0002998999843839556,-0.018341800197958946],"type":"VEC3"},{"bufferView":1,"componentType":5126,"count":6400,"type":"VEC3"},{"bufferView":2,"componentType":5125,"count":38400,"type":"SCALAR"}],"asset":{"generator":"Luxion KeyShot","version":"2.0"},"bufferViews":[{"buffer":0,"byteLength":76800,"byteOffset":0,"byteStride":12},{"buffer":0,"byteLength":76800,"byteOffset":76800,"byteStride":12},{"buffer":0,"byteLength":153600,"byteOffset":153600}],"buffers":[{"byteLength":307200,"uri":"./333_resources/333.bin"}],"cameras":[{"name":"active","perspective":{"aspectRatio":1.0,"yfov":0.4363323129985824,"zfar":349.44964599609375,"znear":296.3392639160156},"type":"perspective"},{"name":"Geometry View 1","perspective":{"aspectRatio":1.0,"yfov":0.43833943764363426,"zfar":183.30796813964844,"znear":89.99451446533203},"type":"perspective"},{"name":"Geometry View 1","perspective":{"aspectRatio":1.0,"yfov":0.4363323129985824,"zfar":247.5669708251953,"znear":175.61782836914063},"type":"perspective"}],"materials":[{"doubleSided":true,"name":"gltf_material #0","pbrMetallicRoughness":{"baseColorFactor":[0.0,0.5098040103912354,0.33333298563957214,1.0],"metallicFactor":1.0,"roughnessFactor":1.0}}],"meshes":[{"name":"Mesh-mesh","primitives":[{"attributes":{"NORMAL":1,"POSITION":0},"indices":2,"material":0,"mode":4}]}],"nodes":[{"camera":0,"matrix":[-0.0009960625718163963,1.6287167081685538e-10,-8.865284283531947e-05,0.0,-4.477748654314533e-06,-0.0009987237046944603,5.0308089781737024e-05,0.0,-8.853968977928161e-05,5.050697177648545e-05,0.000994791328907013,0.0,-0.021645750045776367,0.049696266174316404,0.3245970153808594,1.0],"name":"active"},{"camera":1,"matrix":[0.001000000001607166,4.371102781336993e-11,-1.1747325825424574e-11,0.0,-3.353708427472457e-11,0.0008898587241169185,0.0004562361843765896,0.0,3.039601281784599e-11,-0.0004562361836433411,0.0008898587226867676,0.0,9.038564562797546e-05,-0.011130444526672363,0.09963146209716797,1.0],"name":"Geometry View 1"},{"camera":2,"matrix":[-0.0007877174258333744,1.6274322614528992e-10,-0.0006160367104552296,0.0,-2.0768682265973765e-06,0.0009999942666734387,2.655926193642648e-06,0.0,0.0006160331964492798,3.3715465106070043e-06,-0.0007877129316329957,0.0,0.13131185913085938,0.10926702117919922,-0.16588667297363283,1.0],"name":"Geometry View 1"},{"mesh":0,"name":"Mesh"},{"children":[3],"name":"JewelCAD"},{"children":[4],"matrix":[1000.0,0.0,0.0,0.0,0.0,6.123233995736765e-14,1000.0,0.0,0.0,-1000.0,6.123233995736765e-14,0.0,0.0,50.00000000000001,3.074547666678356e-31,1.0],"name":"1(1)(1)"},{"children":[5],"name":"Default"},{"children":[6],"matrix":[0.001,0.0,0.0,0.0,0.0,0.001,0.0,0.0,0.0,0.0,0.001,0.0,0.0,0.0,0.0,1.0],"name":"lux_root"}],"scenes":[{"nodes":[0,1,2,7]}]}   