{
  "asset": {
    "generator": "Khronos glTF Blender I/O v4.5.49",
    "version": "2.0"
  },
  "scene": 0,
  "scenes": [
    {
      "name": "Scene",
      "nodes": [
        4
      ]
    }
  ],
  "nodes": [
    {
      "mesh": 0,
      "name": "Mesh",
      "rotation": [
        -0.17255574464797974,
        -0.11124660819768906,
        -0.73097825050354,
        0.6507837772369385
      ],
      "scale": [
        1.6348774433135986,
        1.6672226190567017,
        1.635608196258545
      ]
    },
    {
      "children": [
        0
      ],
      "name": "JewelCAD"
    },
    {
      "children": [
        1
      ],
      "name": "1(1)(1)",
      "rotation": [
        0.70710688829422,
        0,
        0,
        0.7071066498756409
      ],
      "scale": [
        999.9999389648438,
        1000.0000610351562,
        1000.0000610351562
      ],
      "translation": [
        0,
        49.999996185302734,
        0
      ]
    },
    {
      "children": [
        2
      ],
      "name": "Default"
    },
    {
      "children": [
        3
      ],
      "name": "lux_root",
      "scale": [
        0.0010000000474974513,
        0.0010000000474974513,
        0.0010000000474974513
      ]
    }
  ],
  "materials": [
    {
      "doubleSided": true,
      "name": "gltf_material #0",
      "pbrMetallicRoughness": {
        "baseColorFactor": [
          0,
          0.5098040103912354,
          0.33333298563957214,
          1
        ]
      }
    }
  ],
  "meshes": [
    {
      "name": "Mesh-mesh",
      "primitives": [
        {
          "attributes": {
            "POSITION": 0,
            "NORMAL": 1
          },
          "indices": 2,
          "material": 0
        }
      ]
    }
  ],
  "accessors": [
    {
      "bufferView": 0,
      "componentType": 5126,
      "count": 6400,
      "max": [
        0.01834999956190586,
        0.0002998999843839556,
        0.018341800197958946
      ],
      "min": [
        -0.01834999956190586,
        -0.0002998999843839556,
        -0.018341800197958946
      ],
      "type": "VEC3"
    },
    {
      "bufferView": 1,
      "componentType": 5126,
      "count": 6400,
      "type": "VEC3"
    },
    {
      "bufferView": 2,
      "componentType": 5123,
      "count": 38400,
      "type": "SCALAR"
    }
  ],
  "bufferViews": [
    {
      "buffer": 0,
      "byteLength": 76800,
      "byteOffset": 0,
      "target": 34962
    },
    {
      "buffer": 0,
      "byteLength": 76800,
      "byteOffset": 76800,
      "target": 34962
    },
    {
      "buffer": 0,
      "byteLength": 76800,
      "byteOffset": 153600,
      "target": 34963
    }
  ],
  "buffers": [
    {
      "uri": "444_data.bin",
      "byteLength": 230400
    }
  ]
}