{
  "asset": {
    "version": "2.0",
    "generator": "THREE.GLTFExporter r176"
  },
  "scenes": [
    {
      "nodes": [
        6
      ]
    }
  ],
  "scene": 0,
  "nodes": [
    {
      "name": "1白水晶-ore-cryN-white-n01",
      "extras": {
        "name": "1白水晶-ore-cryN-white-n01"
      },
      "mesh": 0
    },
    {
      "name": "ore-cryN-white-n01glb_1_1",
      "extras": {
        "name": "ore-cryN-white-n01.glb"
      },
      "children": [
        0
      ]
    },
    {
      "name": "ore-cryN-white-n01glb_1_1",
      "extras": {
        "name": "ore-cryN-white-n01.glb"
      },
      "children": [
        1
      ]
    },
    {
      "name": "ore-cryN-white-n01glb_1",
      "extras": {
        "name": "ore-cryN-white-n01.glb"
      },
      "children": [
        2
      ]
    },
    {
      "name": "ore-cryN-white-n01glb_1",
      "extras": {
        "name": "ore-cryN-white-n01.glb"
      },
      "children": [
        3
      ]
    },
    {
      "name": "ore-cryN-white-n01glb",
      "extras": {
        "name": "ore-cryN-white-n01.glb"
      },
      "children": [
        4
      ]
    },
    {
      "name": "ore-cryN-white-n01.glb",
      "children": [
        5
      ]
    }
  ],
  "bufferViews": [
    {
      "buffer": 0,
      "byteOffset": 0,
      "byteLength": 17052,
      "target": 34962,
      "byteStride": 12
    },
    {
      "buffer": 0,
      "byteOffset": 17052,
      "byteLength": 17052,
      "target": 34962,
      "byteStride": 12
    },
    {
      "buffer": 0,
      "byteOffset": 34104,
      "byteLength": 11368,
      "target": 34962,
      "byteStride": 8
    },
    {
      "buffer": 0,
      "byteOffset": 45472,
      "byteLength": 22736,
      "target": 34962,
      "byteStride": 16
    },
    {
      "buffer": 0,
      "byteOffset": 68208,
      "byteLength": 33408,
      "target": 34963
    }
  ],
  "buffers": [
    {
      "uri": "ore-cryN-white-n01_20250626_1750950523_data.bin",
      "byteLength": 101616
    }
  ],
  "accessors": [
    {
      "bufferView": 0,
      "componentType": 5126,
      "count": 1421,
      "max": [
        0.9924996495246887,
        1.0000017881393433,
        1.0000008344650269
      ],
      "min": [
        -0.9924868941307068,
        -1.0000003576278687,
        -1.000001311302185
      ],
      "type": "VEC3"
    },
    {
      "bufferView": 1,
      "componentType": 5126,
      "count": 1421,
      "max": [
        0.996282696723938,
        0.9997636675834656,
        0.9997621774673462
      ],
      "min": [
        -0.9962905049324036,
        -0.9997621774673462,
        -0.9997606873512268
      ],
      "type": "VEC3"
    },
    {
      "bufferView": 2,
      "componentType": 5126,
      "count": 1421,
      "max": [
        1,
        1
      ],
      "min": [
        0,
        5.960464477539063e-8
      ],
      "type": "VEC2"
    },
    {
      "bufferView": 3,
      "componentType": 5126,
      "count": 1421,
      "max": [
        0.0057206712663173676,
        0.9999998807907104,
        0.9999998807907104,
        -1
      ],
      "min": [
        -0.006000078748911619,
        -0.9979254603385925,
        -0.9999998807907104,
        -1
      ],
      "type": "VEC4"
    },
    {
      "bufferView": 4,
      "componentType": 5125,
      "count": 8352,
      "max": [
        1420
      ],
      "min": [
        0
      ],
      "type": "SCALAR"
    }
  ],
  "materials": [
    {
      "pbrMetallicRoughness": {
        "metallicFactor": 0,
        "roughnessFactor": 0.1
      },
      "doubleSided": true,
      "name": "ore-cryN-white-n01",
      "extras": {
        "originalProperties": {
          "color": 16777215,
          "roughness": 0,
          "metalness": 0,
          "opacity": 1,
          "transparent": false,
          "emissive": 16777215,
          "emissiveIntensity": 0.02,
          "normalScale": {
            "x": 1,
            "y": 1
          },
          "aoMapIntensity": 1,
          "displacementScale": 1,
          "displacementBias": 0,
          "transmission": 1,
          "thickness": 0.49,
          "ior": 2,
          "attenuationDistance": null,
          "attenuationColor": 16777215,
          "dispersion": 0,
          "clearcoat": 0,
          "clearcoatRoughness": 0,
          "iridescence": 0,
          "iridescenceIOR": 1.3,
          "sheen": 0,
          "sheenRoughness": 1,
          "sheenColor": 0,
          "anisotropy": 0,
          "anisotropyRotation": 0,
          "specularIntensity": 1,
          "specularColor": 16777215
        },
        "modifiedProperties": {
          "thickness": 0.8,
          "ior": 1.7,
          "emissiveIntensity": 0,
          "roughness": 0.1
        }
      },
      "extensions": {
        "KHR_materials_transmission": {
          "transmissionFactor": 1
        },
        "KHR_materials_volume": {
          "thicknessFactor": 0.8,
          "attenuationColor": [
            1,
            1,
            1
          ]
        },
        "KHR_materials_ior": {
          "ior": 1.7
        },
        "KHR_materials_emissive_strength": {
          "emissiveStrength": 0
        }
      }
    }
  ],
  "meshes": [
    {
      "primitives": [
        {
          "mode": 4,
          "attributes": {
            "POSITION": 0,
            "NORMAL": 1,
            "TEXCOORD_0": 2,
            "TANGENT": 3
          },
          "indices": 4,
          "material": 0
        }
      ]
    }
  ],
  "extensionsUsed": [
    "KHR_materials_transmission",
    "KHR_materials_volume",
    "KHR_materials_ior",
    "KHR_materials_emissive_strength"
  ]
}