{
  "asset": {
    "generator": "Khronos glTF Blender I/O v4.5.49",
    "version": "2.0"
  },
  "extensionsUsed": [
    "KHR_materials_specular"
  ],
  "scene": 0,
  "scenes": [
    {
      "name": "Scene",
      "nodes": [
        1,
        3,
        5,
        7,
        9,
        13,
        19,
        23,
        29,
        37,
        41,
        47,
        48,
        50,
        52,
        55,
        57,
        59,
        63,
        67,
        73,
        77,
        83
      ]
    }
  ],
  "nodes": [
    {
      "mesh": 0,
      "name": "JewelCAD_2",
      "scale": [
        0.07957559078931808,
        0.08411238342523575,
        0.08377013355493546
      ]
    },
    {
      "children": [
        0
      ],
      "name": "图层 01",
      "scale": [
        0.009999999776482582,
        0.009999999776482582,
        0.009999999776482582
      ]
    },
    {
      "name": "图层01"
    },
    {
      "children": [
        2
      ],
      "name": "组名1",
      "scale": [
        0.009999999776482582,
        0.009999999776482582,
        0.009999999776482582
      ]
    },
    {
      "name": "图层05"
    },
    {
      "children": [
        4
      ],
      "name": "组名2",
      "scale": [
        0.009999999776482582,
        0.009999999776482582,
        0.009999999776482582
      ]
    },
    {
      "name": "图层09"
    },
    {
      "children": [
        6
      ],
      "name": "组名3",
      "scale": [
        0.009999999776482582,
        0.009999999776482582,
        0.009999999776482582
      ]
    },
    {
      "name": "图层17"
    },
    {
      "children": [
        8
      ],
      "name": "组名5",
      "scale": [
        0.009999999776482582,
        0.009999999776482582,
        0.009999999776482582
      ]
    },
    {
      "name": "JewelCAD"
    },
    {
      "children": [
        10
      ],
      "name": "1(1)(1)",
      "rotation": [
        0.70710688829422,
        0,
        0,
        0.7071066498756409
      ],
      "scale": [
        999.9999389648438,
        999.9999389648438,
        999.9999389648438
      ],
      "translation": [
        0,
        49.99999237060547,
        0
      ]
    },
    {
      "children": [
        11
      ],
      "name": "Default"
    },
    {
      "children": [
        12
      ],
      "name": "lux_root",
      "scale": [
        0.0010000000474974513,
        0.0010000000474974513,
        0.0010000000474974513
      ]
    },
    {
      "name": "Group"
    },
    {
      "children": [
        14
      ],
      "name": "图层01.001"
    },
    {
      "children": [
        15
      ],
      "name": "组名1.001"
    },
    {
      "children": [
        16
      ],
      "name": "1珠(1)",
      "rotation": [
        0,
        -0.008480644784867764,
        0,
        0.9999640583992004
      ],
      "scale": [
        1000.0001220703125,
        999.9999389648438,
        1000.0001220703125
      ],
      "translation": [
        0,
        3.0508334636688232,
        0
      ]
    },
    {
      "children": [
        17
      ],
      "name": "Default.001"
    },
    {
      "children": [
        18
      ],
      "name": "lux_root.001",
      "scale": [
        0.0010000000474974513,
        0.0010000000474974513,
        0.0010000000474974513
      ]
    },
    {
      "name": "JewelCAD.001"
    },
    {
      "children": [
        20
      ],
      "name": "1(1)(1).001",
      "rotation": [
        0.70710688829422,
        0,
        0,
        0.7071066498756409
      ],
      "scale": [
        999.9999389648438,
        999.9998779296875,
        999.9998779296875
      ],
      "translation": [
        0,
        49.9999885559082,
        0
      ]
    },
    {
      "children": [
        21
      ],
      "name": "Default.002"
    },
    {
      "children": [
        22
      ],
      "name": "lux_root.002",
      "scale": [
        0.0010000000474974513,
        0.0010000000474974513,
        0.0010000000474974513
      ]
    },
    {
      "name": "Group.001"
    },
    {
      "children": [
        24
      ],
      "name": "图层01.002"
    },
    {
      "children": [
        25
      ],
      "name": "组名1.002"
    },
    {
      "children": [
        26
      ],
      "name": "1珠(1).001",
      "rotation": [
        0,
        -0.008480644784867764,
        0,
        0.9999640583992004
      ],
      "scale": [
        1000.0001220703125,
        999.9999389648438,
        1000.0001220703125
      ],
      "translation": [
        0,
        3.0508334636688232,
        0
      ]
    },
    {
      "children": [
        27
      ],
      "name": "Default.003"
    },
    {
      "children": [
        28
      ],
      "name": "lux_root.003",
      "scale": [
        0.0010000000474974513,
        0.0010000000474974513,
        0.0010000000474974513
      ]
    },
    {
      "name": "物件_430.001",
      "translation": [
        0,
        -0.000003337860107421875,
        0
      ]
    },
    {
      "children": [
        30
      ],
      "name": "物件_430",
      "translation": [
        0,
        -0.000003337860107421875,
        0
      ]
    },
    {
      "children": [
        31
      ],
      "name": "图层01.003",
      "translation": [
        0,
        -0.000003337860107421875,
        0
      ]
    },
    {
      "children": [
        32
      ],
      "name": "组名1.003",
      "rotation": [
        -0.70710688829422,
        0,
        0,
        0.7071066498756409
      ]
    },
    {
      "children": [
        33
      ],
      "name": "RootNode"
    },
    {
      "children": [
        34
      ],
      "name": "6珠",
      "rotation": [
        0.5000161528587341,
        -0.5000161528587341,
        0.49998384714126587,
        0.49998384714126587
      ],
      "scale": [
        0.0010000000474974513,
        0.0010000000474974513,
        0.0010000000474974513
      ],
      "translation": [
        0,
        0.0502999983727932,
        -0.05000000074505806
      ]
    },
    {
      "children": [
        35
      ],
      "name": "Default.004"
    },
    {
      "children": [
        36
      ],
      "name": "lux_root.004"
    },
    {
      "name": "JewelCAD.002"
    },
    {
      "children": [
        38
      ],
      "name": "1(1)(1).002",
      "rotation": [
        0.70710688829422,
        0,
        0,
        0.7071066498756409
      ],
      "scale": [
        999.9999389648438,
        999.9998779296875,
        999.9998779296875
      ],
      "translation": [
        0,
        49.9999885559082,
        0
      ]
    },
    {
      "children": [
        39
      ],
      "name": "Default.005"
    },
    {
      "children": [
        40
      ],
      "name": "lux_root.005",
      "scale": [
        0.0010000000474974513,
        0.0010000000474974513,
        0.0010000000474974513
      ]
    },
    {
      "name": "Group.002"
    },
    {
      "children": [
        42
      ],
      "name": "图层01.004"
    },
    {
      "children": [
        43
      ],
      "name": "组名1.004"
    },
    {
      "children": [
        44
      ],
      "name": "1珠(1).002",
      "scale": [
        999.9999389648438,
        999.9999389648438,
        999.9999389648438
      ],
      "translation": [
        0,
        3.0508334636688232,
        0
      ]
    },
    {
      "children": [
        45
      ],
      "name": "Default.006"
    },
    {
      "children": [
        46
      ],
      "name": "lux_root.006",
      "scale": [
        0.0010000000474974513,
        0.0010000000474974513,
        0.0010000000474974513
      ]
    },
    {
      "name": "默认值",
      "scale": [
        0.0010000000474974513,
        0.0010000000474974513,
        0.0010000000474974513
      ]
    },
    {
      "name": "图层01.005"
    },
    {
      "children": [
        49
      ],
      "name": "组名1.005",
      "scale": [
        0.0010000000474974513,
        0.0010000000474974513,
        0.0010000000474974513
      ]
    },
    {
      "name": "图层05.001"
    },
    {
      "children": [
        51
      ],
      "name": "组名2.001",
      "scale": [
        0.0010000000474974513,
        0.0010000000474974513,
        0.0010000000474974513
      ]
    },
    {
      "name": "红宝石"
    },
    {
      "children": [
        53
      ],
      "name": "图层09.001"
    },
    {
      "children": [
        54
      ],
      "name": "组名3.001",
      "scale": [
        0.0010000000474974513,
        0.0010000000474974513,
        0.0010000000474974513
      ]
    },
    {
      "name": "图层17.001"
    },
    {
      "children": [
        56
      ],
      "name": "组名5.001",
      "scale": [
        0.0010000000474974513,
        0.0010000000474974513,
        0.0010000000474974513
      ]
    },
    {
      "name": "组名1::图层01"
    },
    {
      "children": [
        58
      ],
      "name": "JFRBooleanObject_DoNotDelete",
      "scale": [
        0.0010000000474974513,
        0.0010000000474974513,
        0.0010000000474974513
      ]
    },
    {
      "name": "JewelCAD.003"
    },
    {
      "children": [
        60
      ],
      "name": "1(1)(1).003",
      "rotation": [
        0.70710688829422,
        0,
        0,
        0.7071066498756409
      ],
      "scale": [
        999.9999389648438,
        999.9998168945312,
        999.9998168945312
      ],
      "translation": [
        0,
        49.99998474121094,
        0
      ]
    },
    {
      "children": [
        61
      ],
      "name": "Default.007"
    },
    {
      "children": [
        62
      ],
      "name": "lux_root.007",
      "scale": [
        0.0010000000474974513,
        0.0010000000474974513,
        0.0010000000474974513
      ]
    },
    {
      "name": "JewelCAD.004"
    },
    {
      "children": [
        64
      ],
      "name": "1(1)(1).004",
      "rotation": [
        0.70710688829422,
        0,
        0,
        0.7071066498756409
      ],
      "scale": [
        999.9999389648438,
        999.9999389648438,
        999.9999389648438
      ],
      "translation": [
        0,
        49.99999237060547,
        0
      ]
    },
    {
      "children": [
        65
      ],
      "name": "Default.008"
    },
    {
      "children": [
        66
      ],
      "name": "lux_root.008",
      "scale": [
        0.0010000000474974513,
        0.0010000000474974513,
        0.0010000000474974513
      ]
    },
    {
      "name": "Group.003"
    },
    {
      "children": [
        68
      ],
      "name": "图层01.006"
    },
    {
      "children": [
        69
      ],
      "name": "组名1.006"
    },
    {
      "children": [
        70
      ],
      "name": "1珠(1).003",
      "scale": [
        999.9999389648438,
        999.9999389648438,
        999.9999389648438
      ],
      "translation": [
        0,
        3.0508334636688232,
        0
      ]
    },
    {
      "children": [
        71
      ],
      "name": "Default.009"
    },
    {
      "children": [
        72
      ],
      "name": "lux_root.009",
      "scale": [
        0.0010000000474974513,
        0.0010000000474974513,
        0.0010000000474974513
      ]
    },
    {
      "name": "JewelCAD.005"
    },
    {
      "children": [
        74
      ],
      "name": "1(1)(1).005",
      "rotation": [
        0.70710688829422,
        0,
        0,
        0.7071066498756409
      ],
      "scale": [
        999.9999389648438,
        999.9998779296875,
        999.9998779296875
      ],
      "translation": [
        0,
        49.9999885559082,
        0
      ]
    },
    {
      "children": [
        75
      ],
      "name": "Default.010"
    },
    {
      "children": [
        76
      ],
      "name": "lux_root.010",
      "scale": [
        0.0010000000474974513,
        0.0010000000474974513,
        0.0010000000474974513
      ]
    },
    {
      "name": "Group.004"
    },
    {
      "children": [
        78
      ],
      "name": "图层01.007"
    },
    {
      "children": [
        79
      ],
      "name": "组名1.007"
    },
    {
      "children": [
        80
      ],
      "name": "1珠(1).004",
      "scale": [
        999.9999389648438,
        999.9999389648438,
        999.9999389648438
      ],
      "translation": [
        0,
        3.0508334636688232,
        0
      ]
    },
    {
      "children": [
        81
      ],
      "name": "Default.011"
    },
    {
      "children": [
        82
      ],
      "name": "lux_root.011",
      "scale": [
        0.0010000000474974513,
        0.0010000000474974513,
        0.0010000000474974513
      ]
    }
  ],
  "materials": [
    {
      "doubleSided": true,
      "extensions": {
        "KHR_materials_specular": {
          "specularColorFactor": [
            2,
            2,
            2
          ]
        }
      },
      "name": "材质_1.001",
      "pbrMetallicRoughness": {
        "baseColorFactor": [
          0.7119868993759155,
          0.7119868993759155,
          0.7119868993759155,
          1
        ],
        "metallicFactor": 0,
        "roughnessFactor": 0.10362690687179565
      }
    }
  ],
  "meshes": [
    {
      "name": "JewelCAD_2.001",
      "primitives": [
        {
          "attributes": {
            "POSITION": 0,
            "NORMAL": 1
          },
          "indices": 2,
          "material": 0
        }
      ]
    }
  ],
  "accessors": [
    {
      "bufferView": 0,
      "componentType": 5126,
      "count": 7008,
      "max": [
        -6.679999828338623,
        4.161099910736084,
        4.078100204467773
      ],
      "min": [
        -14.220000267028809,
        -4.161099910736084,
        -4.27810001373291
      ],
      "type": "VEC3"
    },
    {
      "bufferView": 1,
      "componentType": 5126,
      "count": 7008,
      "type": "VEC3"
    },
    {
      "bufferView": 2,
      "componentType": 5123,
      "count": 41472,
      "type": "SCALAR"
    }
  ],
  "bufferViews": [
    {
      "buffer": 0,
      "byteLength": 84096,
      "byteOffset": 0,
      "target": 34962
    },
    {
      "buffer": 0,
      "byteLength": 84096,
      "byteOffset": 84096,
      "target": 34962
    },
    {
      "buffer": 0,
      "byteLength": 82944,
      "byteOffset": 168192,
      "target": 34963
    }
  ],
  "buffers": [
    {
      "uri": "白玛瑙2_data.bin",
      "byteLength": 251136
    }
  ]
}