{
  "asset": {
    "generator": "Khronos glTF Blender I/O v4.5.49",
    "version": "2.0"
  },
  "extensionsUsed": [
    "KHR_materials_specular"
  ],
  "scene": 0,
  "scenes": [
    {
      "name": "Scene",
      "nodes": [
        0,
        2,
        4,
        6,
        8,
        15,
        19,
        25,
        29,
        35,
        43,
        47,
        53,
        54,
        56,
        58,
        61,
        63,
        65,
        69,
        70,
        72,
        74,
        76,
        78,
        80,
        87,
        91,
        97,
        101,
        107,
        115,
        119,
        125,
        126,
        128,
        130,
        133,
        135,
        137,
        141,
        142
      ]
    }
  ],
  "nodes": [
    {
      "name": "图层 01.001",
      "scale": [
        0.009999999776482582,
        0.009999999776482582,
        0.009999999776482582
      ]
    },
    {
      "name": "图层01"
    },
    {
      "children": [
        1
      ],
      "name": "组名1",
      "scale": [
        0.009999999776482582,
        0.009999999776482582,
        0.009999999776482582
      ]
    },
    {
      "name": "图层05"
    },
    {
      "children": [
        3
      ],
      "name": "组名2",
      "scale": [
        0.009999999776482582,
        0.009999999776482582,
        0.009999999776482582
      ]
    },
    {
      "name": "图层09"
    },
    {
      "children": [
        5
      ],
      "name": "组名3",
      "scale": [
        0.009999999776482582,
        0.009999999776482582,
        0.009999999776482582
      ]
    },
    {
      "name": "图层17"
    },
    {
      "children": [
        7
      ],
      "name": "组名5",
      "scale": [
        0.009999999776482582,
        0.009999999776482582,
        0.009999999776482582
      ]
    },
    {
      "name": "物件_430.003",
      "translation": [
        -0.00000762939453125,
        0,
        0
      ]
    },
    {
      "children": [
        9
      ],
      "name": "物件_430.002",
      "translation": [
        -0.000003814697265625,
        0,
        0
      ]
    },
    {
      "children": [
        10
      ],
      "name": "图层01.005",
      "translation": [
        -0.000003814697265625,
        0,
        0
      ]
    },
    {
      "children": [
        11
      ],
      "name": "组名1.005",
      "rotation": [
        -0.70710688829422,
        0,
        0,
        0.7071066498756409
      ],
      "translation": [
        -0.00000762939453125,
        0,
        -0.000011444091796875
      ]
    },
    {
      "children": [
        12
      ],
      "name": "RootNode.001",
      "translation": [
        -0.000011444091796875,
        0,
        -0.000011444091796875
      ]
    },
    {
      "children": [
        13
      ],
      "name": "6珠.001",
      "scale": [
        0.0010000000474974513,
        0.0010000000474974513,
        0.0010000000474974513
      ],
      "translation": [
        -0.05000314861536026,
        0.0041014146991074085,
        -0.046195127069950104
      ]
    },
    {
      "children": [
        14
      ],
      "name": "Default.008"
    },
    {
      "name": "JewelCAD.001"
    },
    {
      "children": [
        16
      ],
      "name": "1(1)(1)",
      "rotation": [
        0.70710688829422,
        0,
        0,
        0.7071066498756409
      ],
      "scale": [
        999.9999389648438,
        999.9998168945312,
        999.9998168945312
      ],
      "translation": [
        0,
        49.99998474121094,
        0
      ]
    },
    {
      "children": [
        17
      ],
      "name": "Default"
    },
    {
      "children": [
        18
      ],
      "name": "lux_root",
      "scale": [
        0.0010000000474974513,
        0.0010000000474974513,
        0.0010000000474974513
      ]
    },
    {
      "name": "Group"
    },
    {
      "children": [
        20
      ],
      "name": "图层01.001"
    },
    {
      "children": [
        21
      ],
      "name": "组名1.001"
    },
    {
      "children": [
        22
      ],
      "name": "1珠(1)",
      "rotation": [
        0,
        -0.008480646647512913,
        0,
        0.9999640583992004
      ],
      "scale": [
        1000.0001220703125,
        999.9999389648438,
        1000.0001220703125
      ],
      "translation": [
        0,
        3.0508334636688232,
        0
      ]
    },
    {
      "children": [
        23
      ],
      "name": "Default.001"
    },
    {
      "children": [
        24
      ],
      "name": "lux_root.001",
      "scale": [
        0.0010000000474974513,
        0.0010000000474974513,
        0.0010000000474974513
      ]
    },
    {
      "name": "JewelCAD.002"
    },
    {
      "children": [
        26
      ],
      "name": "1(1)(1).001",
      "rotation": [
        0.70710688829422,
        0,
        0,
        0.7071066498756409
      ],
      "scale": [
        999.9999389648438,
        999.999755859375,
        999.999755859375
      ],
      "translation": [
        0,
        49.99998092651367,
        0
      ]
    },
    {
      "children": [
        27
      ],
      "name": "Default.002"
    },
    {
      "children": [
        28
      ],
      "name": "lux_root.002",
      "scale": [
        0.0010000000474974513,
        0.0010000000474974513,
        0.0010000000474974513
      ]
    },
    {
      "name": "Group.001"
    },
    {
      "children": [
        30
      ],
      "name": "图层01.002"
    },
    {
      "children": [
        31
      ],
      "name": "组名1.002"
    },
    {
      "children": [
        32
      ],
      "name": "1珠(1).001",
      "rotation": [
        0,
        -0.008480646647512913,
        0,
        0.9999640583992004
      ],
      "scale": [
        1000.0001220703125,
        999.9999389648438,
        1000.0001220703125
      ],
      "translation": [
        0,
        3.0508334636688232,
        0
      ]
    },
    {
      "children": [
        33
      ],
      "name": "Default.003"
    },
    {
      "children": [
        34
      ],
      "name": "lux_root.003",
      "scale": [
        0.0010000000474974513,
        0.0010000000474974513,
        0.0010000000474974513
      ]
    },
    {
      "name": "物件_430.001",
      "translation": [
        0,
        -0.000003337860107421875,
        0
      ]
    },
    {
      "children": [
        36
      ],
      "name": "物件_430",
      "translation": [
        0,
        -0.000003337860107421875,
        0
      ]
    },
    {
      "children": [
        37
      ],
      "name": "图层01.003",
      "translation": [
        0,
        -0.000003337860107421875,
        0
      ]
    },
    {
      "children": [
        38
      ],
      "name": "组名1.003",
      "rotation": [
        -0.70710688829422,
        0,
        0,
        0.7071066498756409
      ]
    },
    {
      "children": [
        39
      ],
      "name": "RootNode"
    },
    {
      "children": [
        40
      ],
      "name": "6珠",
      "rotation": [
        0.5000161528587341,
        -0.5000161528587341,
        0.49998384714126587,
        0.49998384714126587
      ],
      "scale": [
        0.0010000000474974513,
        0.0010000000474974513,
        0.0010000000474974513
      ],
      "translation": [
        0,
        0.0502999983727932,
        -0.05000000074505806
      ]
    },
    {
      "children": [
        41
      ],
      "name": "Default.004"
    },
    {
      "children": [
        42
      ],
      "name": "lux_root.004"
    },
    {
      "name": "JewelCAD.003"
    },
    {
      "children": [
        44
      ],
      "name": "1(1)(1).002",
      "rotation": [
        0.70710688829422,
        0,
        0,
        0.7071066498756409
      ],
      "scale": [
        999.9999389648438,
        999.999755859375,
        999.999755859375
      ],
      "translation": [
        0,
        49.99998092651367,
        0
      ]
    },
    {
      "children": [
        45
      ],
      "name": "Default.005"
    },
    {
      "children": [
        46
      ],
      "name": "lux_root.005",
      "scale": [
        0.0010000000474974513,
        0.0010000000474974513,
        0.0010000000474974513
      ]
    },
    {
      "name": "Group.002"
    },
    {
      "children": [
        48
      ],
      "name": "图层01.004"
    },
    {
      "children": [
        49
      ],
      "name": "组名1.004"
    },
    {
      "children": [
        50
      ],
      "name": "1珠(1).002",
      "scale": [
        999.9999389648438,
        999.9999389648438,
        999.9999389648438
      ],
      "translation": [
        0,
        3.0508334636688232,
        0
      ]
    },
    {
      "children": [
        51
      ],
      "name": "Default.006"
    },
    {
      "children": [
        52
      ],
      "name": "lux_root.006",
      "scale": [
        0.0010000000474974513,
        0.0010000000474974513,
        0.0010000000474974513
      ]
    },
    {
      "name": "默认值",
      "scale": [
        0.0010000000474974513,
        0.0010000000474974513,
        0.0010000000474974513
      ]
    },
    {
      "name": "图层01.006"
    },
    {
      "children": [
        55
      ],
      "name": "组名1.006",
      "scale": [
        0.0010000000474974513,
        0.0010000000474974513,
        0.0010000000474974513
      ]
    },
    {
      "name": "图层05.001"
    },
    {
      "children": [
        57
      ],
      "name": "组名2.001",
      "scale": [
        0.0010000000474974513,
        0.0010000000474974513,
        0.0010000000474974513
      ]
    },
    {
      "name": "红宝石"
    },
    {
      "children": [
        59
      ],
      "name": "图层09.001"
    },
    {
      "children": [
        60
      ],
      "name": "组名3.001",
      "scale": [
        0.0010000000474974513,
        0.0010000000474974513,
        0.0010000000474974513
      ]
    },
    {
      "name": "图层17.001"
    },
    {
      "children": [
        62
      ],
      "name": "组名5.001",
      "scale": [
        0.0010000000474974513,
        0.0010000000474974513,
        0.0010000000474974513
      ]
    },
    {
      "name": "组名1::图层01"
    },
    {
      "children": [
        64
      ],
      "name": "JFRBooleanObject_DoNotDelete",
      "scale": [
        0.0010000000474974513,
        0.0010000000474974513,
        0.0010000000474974513
      ]
    },
    {
      "name": "JewelCAD.004"
    },
    {
      "children": [
        66
      ],
      "name": "1(1)(1).003",
      "rotation": [
        0.70710688829422,
        0,
        0,
        0.7071066498756409
      ],
      "scale": [
        999.9999389648438,
        999.9996948242188,
        999.9996948242188
      ],
      "translation": [
        0,
        49.99998092651367,
        0
      ]
    },
    {
      "children": [
        67
      ],
      "name": "Default.007"
    },
    {
      "children": [
        68
      ],
      "name": "lux_root.007",
      "scale": [
        0.0010000000474974513,
        0.0010000000474974513,
        0.0010000000474974513
      ]
    },
    {
      "name": "图层 01.002",
      "scale": [
        0.009999999776482582,
        0.009999999776482582,
        0.009999999776482582
      ],
      "translation": [
        0.0001353202824248001,
        0.000027473084628582,
        0.0000631883303867653
      ]
    },
    {
      "mesh": 0,
      "name": "JewelCAD_2",
      "scale": [
        0.07957559078931808,
        0.08411238342523575,
        0.08377013355493546
      ],
      "translation": [
        -0.10251910239458084,
        0,
        0
      ]
    },
    {
      "children": [
        71
      ],
      "name": "图层 01.003",
      "scale": [
        0.009999999776482582,
        0.009999999776482582,
        0.009999999776482582
      ]
    },
    {
      "name": "图层01.007"
    },
    {
      "children": [
        73
      ],
      "name": "组名1.007",
      "scale": [
        0.009999999776482582,
        0.009999999776482582,
        0.009999999776482582
      ]
    },
    {
      "name": "图层05.002"
    },
    {
      "children": [
        75
      ],
      "name": "组名2.002",
      "scale": [
        0.009999999776482582,
        0.009999999776482582,
        0.009999999776482582
      ]
    },
    {
      "name": "图层09.002"
    },
    {
      "children": [
        77
      ],
      "name": "组名3.002",
      "scale": [
        0.009999999776482582,
        0.009999999776482582,
        0.009999999776482582
      ]
    },
    {
      "name": "图层17.002"
    },
    {
      "children": [
        79
      ],
      "name": "组名5.002",
      "scale": [
        0.009999999776482582,
        0.009999999776482582,
        0.009999999776482582
      ]
    },
    {
      "name": "物件_430.005",
      "translation": [
        -0.00000762939453125,
        0,
        0
      ]
    },
    {
      "children": [
        81
      ],
      "name": "物件_430.004",
      "translation": [
        -0.000003814697265625,
        0,
        0
      ]
    },
    {
      "children": [
        82
      ],
      "name": "图层01.008",
      "translation": [
        -0.000003814697265625,
        0,
        0
      ]
    },
    {
      "children": [
        83
      ],
      "name": "组名1.008",
      "rotation": [
        -0.70710688829422,
        0,
        0,
        0.7071066498756409
      ],
      "translation": [
        -0.00000762939453125,
        0,
        -0.000011444091796875
      ]
    },
    {
      "children": [
        84
      ],
      "name": "RootNode.002",
      "translation": [
        -0.000011444091796875,
        0,
        -0.000011444091796875
      ]
    },
    {
      "children": [
        85
      ],
      "name": "6珠.002",
      "scale": [
        0.0010000000474974513,
        0.0010000000474974513,
        0.0010000000474974513
      ],
      "translation": [
        -0.05000314861536026,
        0.0041014146991074085,
        -0.046195127069950104
      ]
    },
    {
      "children": [
        86
      ],
      "name": "Default.009"
    },
    {
      "name": "JewelCAD"
    },
    {
      "children": [
        88
      ],
      "name": "1(1)(1).004",
      "rotation": [
        0.70710688829422,
        0,
        0,
        0.7071066498756409
      ],
      "scale": [
        999.9999389648438,
        999.9998168945312,
        999.9998168945312
      ],
      "translation": [
        0,
        49.99998474121094,
        0
      ]
    },
    {
      "children": [
        89
      ],
      "name": "Default.010"
    },
    {
      "children": [
        90
      ],
      "name": "lux_root.008",
      "scale": [
        0.0010000000474974513,
        0.0010000000474974513,
        0.0010000000474974513
      ]
    },
    {
      "name": "Group.003"
    },
    {
      "children": [
        92
      ],
      "name": "图层01.009"
    },
    {
      "children": [
        93
      ],
      "name": "组名1.009"
    },
    {
      "children": [
        94
      ],
      "name": "1珠(1).003",
      "rotation": [
        0,
        -0.008480646647512913,
        0,
        0.9999640583992004
      ],
      "scale": [
        1000.0001220703125,
        999.9999389648438,
        1000.0001220703125
      ],
      "translation": [
        0,
        3.0508334636688232,
        0
      ]
    },
    {
      "children": [
        95
      ],
      "name": "Default.011"
    },
    {
      "children": [
        96
      ],
      "name": "lux_root.009",
      "scale": [
        0.0010000000474974513,
        0.0010000000474974513,
        0.0010000000474974513
      ]
    },
    {
      "name": "JewelCAD.005"
    },
    {
      "children": [
        98
      ],
      "name": "1(1)(1).005",
      "rotation": [
        0.70710688829422,
        0,
        0,
        0.7071066498756409
      ],
      "scale": [
        999.9999389648438,
        999.999755859375,
        999.999755859375
      ],
      "translation": [
        0,
        49.99998092651367,
        0
      ]
    },
    {
      "children": [
        99
      ],
      "name": "Default.012"
    },
    {
      "children": [
        100
      ],
      "name": "lux_root.010",
      "scale": [
        0.0010000000474974513,
        0.0010000000474974513,
        0.0010000000474974513
      ]
    },
    {
      "name": "Group.004"
    },
    {
      "children": [
        102
      ],
      "name": "图层01.010"
    },
    {
      "children": [
        103
      ],
      "name": "组名1.010"
    },
    {
      "children": [
        104
      ],
      "name": "1珠(1).004",
      "rotation": [
        0,
        -0.008480646647512913,
        0,
        0.9999640583992004
      ],
      "scale": [
        1000.0001220703125,
        999.9999389648438,
        1000.0001220703125
      ],
      "translation": [
        0,
        3.0508334636688232,
        0
      ]
    },
    {
      "children": [
        105
      ],
      "name": "Default.013"
    },
    {
      "children": [
        106
      ],
      "name": "lux_root.011",
      "scale": [
        0.0010000000474974513,
        0.0010000000474974513,
        0.0010000000474974513
      ]
    },
    {
      "name": "物件_430.008",
      "translation": [
        0,
        -0.000003337860107421875,
        0
      ]
    },
    {
      "children": [
        108
      ],
      "name": "物件_430.007",
      "translation": [
        0,
        -0.000003337860107421875,
        0
      ]
    },
    {
      "children": [
        109
      ],
      "name": "图层01.011",
      "translation": [
        0,
        -0.000003337860107421875,
        0
      ]
    },
    {
      "children": [
        110
      ],
      "name": "组名1.011",
      "rotation": [
        -0.70710688829422,
        0,
        0,
        0.7071066498756409
      ]
    },
    {
      "children": [
        111
      ],
      "name": "RootNode.003"
    },
    {
      "children": [
        112
      ],
      "name": "6珠.003",
      "rotation": [
        0.5000161528587341,
        -0.5000161528587341,
        0.49998384714126587,
        0.49998384714126587
      ],
      "scale": [
        0.0010000000474974513,
        0.0010000000474974513,
        0.0010000000474974513
      ],
      "translation": [
        0,
        0.0502999983727932,
        -0.05000000074505806
      ]
    },
    {
      "children": [
        113
      ],
      "name": "Default.014"
    },
    {
      "children": [
        114
      ],
      "name": "lux_root.012"
    },
    {
      "name": "JewelCAD.006"
    },
    {
      "children": [
        116
      ],
      "name": "1(1)(1).006",
      "rotation": [
        0.70710688829422,
        0,
        0,
        0.7071066498756409
      ],
      "scale": [
        999.9999389648438,
        999.999755859375,
        999.999755859375
      ],
      "translation": [
        0,
        49.99998092651367,
        0
      ]
    },
    {
      "children": [
        117
      ],
      "name": "Default.015"
    },
    {
      "children": [
        118
      ],
      "name": "lux_root.013",
      "scale": [
        0.0010000000474974513,
        0.0010000000474974513,
        0.0010000000474974513
      ]
    },
    {
      "name": "Group.005"
    },
    {
      "children": [
        120
      ],
      "name": "图层01.012"
    },
    {
      "children": [
        121
      ],
      "name": "组名1.012"
    },
    {
      "children": [
        122
      ],
      "name": "1珠(1).005",
      "scale": [
        999.9999389648438,
        999.9999389648438,
        999.9999389648438
      ],
      "translation": [
        0,
        3.0508334636688232,
        0
      ]
    },
    {
      "children": [
        123
      ],
      "name": "Default.016"
    },
    {
      "children": [
        124
      ],
      "name": "lux_root.014",
      "scale": [
        0.0010000000474974513,
        0.0010000000474974513,
        0.0010000000474974513
      ]
    },
    {
      "name": "默认值.001",
      "scale": [
        0.0010000000474974513,
        0.0010000000474974513,
        0.0010000000474974513
      ]
    },
    {
      "name": "图层01.013"
    },
    {
      "children": [
        127
      ],
      "name": "组名1.013",
      "scale": [
        0.0010000000474974513,
        0.0010000000474974513,
        0.0010000000474974513
      ]
    },
    {
      "name": "图层05.003"
    },
    {
      "children": [
        129
      ],
      "name": "组名2.003",
      "scale": [
        0.0010000000474974513,
        0.0010000000474974513,
        0.0010000000474974513
      ]
    },
    {
      "name": "红宝石.001"
    },
    {
      "children": [
        131
      ],
      "name": "图层09.003"
    },
    {
      "children": [
        132
      ],
      "name": "组名3.003",
      "scale": [
        0.0010000000474974513,
        0.0010000000474974513,
        0.0010000000474974513
      ]
    },
    {
      "name": "图层17.003"
    },
    {
      "children": [
        134
      ],
      "name": "组名5.003",
      "scale": [
        0.0010000000474974513,
        0.0010000000474974513,
        0.0010000000474974513
      ]
    },
    {
      "name": "组名1::图层01.001"
    },
    {
      "children": [
        136
      ],
      "name": "JFRBooleanObject_DoNotDelete.001",
      "scale": [
        0.0010000000474974513,
        0.0010000000474974513,
        0.0010000000474974513
      ]
    },
    {
      "name": "JewelCAD.007"
    },
    {
      "children": [
        138
      ],
      "name": "1(1)(1).007",
      "rotation": [
        0.70710688829422,
        0,
        0,
        0.7071066498756409
      ],
      "scale": [
        999.9999389648438,
        999.9996948242188,
        999.9996948242188
      ],
      "translation": [
        0,
        49.99998092651367,
        0
      ]
    },
    {
      "children": [
        139
      ],
      "name": "Default.017"
    },
    {
      "children": [
        140
      ],
      "name": "lux_root.015",
      "scale": [
        0.0010000000474974513,
        0.0010000000474974513,
        0.0010000000474974513
      ]
    },
    {
      "name": "图层 01",
      "scale": [
        0.009999999776482582,
        0.009999999776482582,
        0.009999999776482582
      ],
      "translation": [
        0.0001353202824248001,
        0.000027473084628582,
        0.0000631883303867653
      ]
    }
  ],
  "materials": [
    {
      "doubleSided": true,
      "extensions": {
        "KHR_materials_specular": {
          "specularColorFactor": [
            2,
            2,
            2
          ]
        }
      },
      "name": "材质_1.003",
      "pbrMetallicRoughness": {
        "baseColorFactor": [
          0.9822447299957275,
          0.6307581067085266,
          0,
          1
        ],
        "roughnessFactor": 0.40770870447158813
      }
    }
  ],
  "meshes": [
    {
      "name": "JewelCAD_2.003",
      "primitives": [
        {
          "attributes": {
            "POSITION": 0,
            "NORMAL": 1
          },
          "indices": 2,
          "material": 0
        }
      ]
    }
  ],
  "accessors": [
    {
      "bufferView": 0,
      "componentType": 5126,
      "count": 7008,
      "max": [
        -6.679999828338623,
        4.161099910736084,
        4.078100204467773
      ],
      "min": [
        -14.220000267028809,
        -4.161099910736084,
        -4.27810001373291
      ],
      "type": "VEC3"
    },
    {
      "bufferView": 1,
      "componentType": 5126,
      "count": 7008,
      "type": "VEC3"
    },
    {
      "bufferView": 2,
      "componentType": 5123,
      "count": 41472,
      "type": "SCALAR"
    }
  ],
  "bufferViews": [
    {
      "buffer": 0,
      "byteLength": 84096,
      "byteOffset": 0,
      "target": 34962
    },
    {
      "buffer": 0,
      "byteLength": 84096,
      "byteOffset": 84096,
      "target": 34962
    },
    {
      "buffer": 0,
      "byteLength": 82944,
      "byteOffset": 168192,
      "target": 34963
    }
  ],
  "buffers": [
    {
      "uri": "磨砂珠6mm_data.bin",
      "byteLength": 251136
    }
  ]
}