{
  "asset": {
    "generator": "Khronos glTF Blender I/O v4.5.49",
    "version": "2.0"
  },
  "scene": 0,
  "scenes": [
    {
      "name": "Scene",
      "nodes": [
        3,
        9,
        13,
        19,
        28
      ]
    }
  ],
  "nodes": [
    {
      "name": "JewelCAD"
    },
    {
      "children": [
        0
      ],
      "name": "1(1)(1)",
      "rotation": [
        0.70710688829422,
        0,
        0,
        0.7071066498756409
      ],
      "scale": [
        999.9999389648438,
        1000.0000610351562,
        1000.0000610351562
      ],
      "translation": [
        0,
        49.999996185302734,
        0
      ]
    },
    {
      "children": [
        1
      ],
      "name": "Default"
    },
    {
      "children": [
        2
      ],
      "name": "lux_root",
      "scale": [
        0.0010000000474974513,
        0.0010000000474974513,
        0.0010000000474974513
      ]
    },
    {
      "name": "Group"
    },
    {
      "children": [
        4
      ],
      "name": "图层01"
    },
    {
      "children": [
        5
      ],
      "name": "组名1"
    },
    {
      "children": [
        6
      ],
      "name": "1珠(1)",
      "rotation": [
        0,
        -0.008480643853545189,
        0,
        0.9999641180038452
      ],
      "scale": [
        1000.0000610351562,
        999.9999389648438,
        1000.0000610351562
      ],
      "translation": [
        0,
        3.0508334636688232,
        0
      ]
    },
    {
      "children": [
        7
      ],
      "name": "Default.001"
    },
    {
      "children": [
        8
      ],
      "name": "lux_root.001",
      "scale": [
        0.0010000000474974513,
        0.0010000000474974513,
        0.0010000000474974513
      ]
    },
    {
      "name": "JewelCAD.001"
    },
    {
      "children": [
        10
      ],
      "name": "1(1)(1).001",
      "rotation": [
        0.70710688829422,
        0,
        0,
        0.7071066498756409
      ],
      "scale": [
        999.9999389648438,
        999.9999389648438,
        999.9999389648438
      ],
      "translation": [
        0,
        49.99999237060547,
        0
      ]
    },
    {
      "children": [
        11
      ],
      "name": "Default.002"
    },
    {
      "children": [
        12
      ],
      "name": "lux_root.002",
      "scale": [
        0.0010000000474974513,
        0.0010000000474974513,
        0.0010000000474974513
      ]
    },
    {
      "name": "Group.001"
    },
    {
      "children": [
        14
      ],
      "name": "图层01.001"
    },
    {
      "children": [
        15
      ],
      "name": "组名1.001"
    },
    {
      "children": [
        16
      ],
      "name": "1珠(1).001",
      "rotation": [
        0,
        -0.008480643853545189,
        0,
        0.9999641180038452
      ],
      "scale": [
        1000.0000610351562,
        999.9999389648438,
        1000.0000610351562
      ],
      "translation": [
        0,
        3.0508334636688232,
        0
      ]
    },
    {
      "children": [
        17
      ],
      "name": "Default.003"
    },
    {
      "children": [
        18
      ],
      "name": "lux_root.003",
      "scale": [
        0.0010000000474974513,
        0.0010000000474974513,
        0.0010000000474974513
      ]
    },
    {
      "mesh": 0,
      "name": "物件_430.002",
      "rotation": [
        1,
        0,
        0,
        2.6475005794981445e-15
      ],
      "translation": [
        0,
        -0.000003337627276778221,
        0
      ]
    },
    {
      "children": [
        20
      ],
      "name": "物件_430.001",
      "translation": [
        0,
        -0.000003337627276778221,
        0
      ]
    },
    {
      "children": [
        21
      ],
      "name": "物件_430",
      "translation": [
        0,
        -0.000003337627276778221,
        0
      ]
    },
    {
      "children": [
        22
      ],
      "name": "图层01.002",
      "translation": [
        0,
        -0.000003337627276778221,
        0
      ]
    },
    {
      "children": [
        23
      ],
      "name": "组名1.002",
      "rotation": [
        -0.70710688829422,
        0,
        0,
        0.7071066498756409
      ]
    },
    {
      "children": [
        24
      ],
      "name": "RootNode"
    },
    {
      "children": [
        25
      ],
      "name": "6珠",
      "rotation": [
        0.5000161528587341,
        -0.5000161528587341,
        0.49998384714126587,
        0.49998384714126587
      ],
      "scale": [
        0.0010000000474974513,
        0.0010000000474974513,
        0.0010000000474974513
      ],
      "translation": [
        0,
        0.0502999983727932,
        -0.05000000074505806
      ]
    },
    {
      "children": [
        26
      ],
      "name": "Default.004"
    },
    {
      "children": [
        27
      ],
      "name": "lux_root.004"
    }
  ],
  "materials": [
    {
      "doubleSided": true,
      "name": "Material.001",
      "pbrMetallicRoughness": {
        "baseColorFactor": [
          8.370928838985492e-9,
          0.11142455041408539,
          0.061432529240846634,
          1
        ],
        "metallicFactor": 0,
        "roughnessFactor": 0
      }
    }
  ],
  "meshes": [
    {
      "name": "物件_430-mesh",
      "primitives": [
        {
          "attributes": {
            "POSITION": 0,
            "NORMAL": 1
          },
          "indices": 2,
          "material": 0
        }
      ]
    }
  ],
  "accessors": [
    {
      "bufferView": 0,
      "componentType": 5126,
      "count": 116640,
      "max": [
        53.550445556640625,
        4.101414203643799,
        4.101414203643799
      ],
      "min": [
        46.449886322021484,
        -4.101414680480957,
        -4.101414680480957
      ],
      "type": "VEC3"
    },
    {
      "bufferView": 1,
      "componentType": 5126,
      "count": 116640,
      "type": "VEC3"
    },
    {
      "bufferView": 2,
      "componentType": 5125,
      "count": 116640,
      "type": "SCALAR"
    }
  ],
  "bufferViews": [
    {
      "buffer": 0,
      "byteLength": 1399680,
      "byteOffset": 0,
      "target": 34962
    },
    {
      "buffer": 0,
      "byteLength": 1399680,
      "byteOffset": 1399680,
      "target": 34962
    },
    {
      "buffer": 0,
      "byteLength": 466560,
      "byteOffset": 2799360,
      "target": 34963
    }
  ],
  "buffers": [
    {
      "uri": "绿玛瑙1_data.bin",
      "byteLength": 3265920
    }
  ]
}