{
  "asset": {
    "generator": "Khronos glTF Blender I/O v4.5.49",
    "version": "2.0"
  },
  "extensionsUsed": [
    "KHR_materials_specular"
  ],
  "scene": 0,
  "scenes": [
    {
      "name": "Scene",
      "nodes": [
        1
      ]
    }
  ],
  "nodes": [
    {
      "mesh": 0,
      "name": "JewelCAD_2",
      "rotation": [
        1,
        0,
        0,
        0
      ],
      "scale": [
        0.07957559078931808,
        0.08411238342523575,
        0.08377013355493546
      ]
    },
    {
      "children": [
        0
      ],
      "name": "图层 01",
      "scale": [
        0.009999999776482582,
        0.009999999776482582,
        0.009999999776482582
      ],
      "translation": [
        0.0001353202824248001,
        0.000027473084628582,
        0.0000631883303867653
      ]
    }
  ],
  "materials": [
    {
      "doubleSided": true,
      "extensions": {
        "KHR_materials_specular": {
          "specularColorFactor": [
            2,
            2,
            2
          ]
        }
      },
      "name": "材质_1.001",
      "pbrMetallicRoughness": {
        "baseColorFactor": [
          0.03310412913560867,
          0.01849997788667679,
          0.7011020183563232,
          1
        ],
        "metallicFactor": 0,
        "roughnessFactor": 0.10362690687179565
      }
    }
  ],
  "meshes": [
    {
      "name": "JewelCAD_2.001",
      "primitives": [
        {
          "attributes": {
            "POSITION": 0,
            "NORMAL": 1
          },
          "indices": 2,
          "material": 0
        }
      ]
    }
  ],
  "accessors": [
    {
      "bufferView": 0,
      "componentType": 5126,
      "count": 7159,
      "max": [
        -6.679999828338623,
        4.161099910736084,
        4.078100204467773
      ],
      "min": [
        -14.220000267028809,
        -4.161099910736084,
        -4.27810001373291
      ],
      "type": "VEC3"
    },
    {
      "bufferView": 1,
      "componentType": 5126,
      "count": 7159,
      "type": "VEC3"
    },
    {
      "bufferView": 2,
      "componentType": 5123,
      "count": 41472,
      "type": "SCALAR"
    }
  ],
  "bufferViews": [
    {
      "buffer": 0,
      "byteLength": 85908,
      "byteOffset": 0,
      "target": 34962
    },
    {
      "buffer": 0,
      "byteLength": 85908,
      "byteOffset": 85908,
      "target": 34962
    },
    {
      "buffer": 0,
      "byteLength": 82944,
      "byteOffset": 171816,
      "target": 34963
    }
  ],
  "buffers": [
    {
      "uri": "蓝玛瑙_data.bin",
      "byteLength": 254760
    }
  ]
}