{
  "asset": {
    "generator": "Khronos glTF Blender I/O v4.5.49",
    "version": "2.0"
  },
  "scene": 0,
  "scenes": [
    {
      "name": "Scene",
      "nodes": [
        3,
        9,
        10,
        12,
        14,
        17,
        19,
        21,
        26
      ]
    }
  ],
  "nodes": [
    {
      "name": "JewelCAD"
    },
    {
      "children": [
        0
      ],
      "name": "1(1)(1)",
      "rotation": [
        0.70710688829422,
        0,
        0,
        0.7071066498756409
      ],
      "scale": [
        999.9999389648438,
        1000.0000610351562,
        1000.0000610351562
      ],
      "translation": [
        0,
        49.999996185302734,
        0
      ]
    },
    {
      "children": [
        1
      ],
      "name": "Default"
    },
    {
      "children": [
        2
      ],
      "name": "lux_root",
      "scale": [
        0.0010000000474974513,
        0.0010000000474974513,
        0.0010000000474974513
      ]
    },
    {
      "name": "Group"
    },
    {
      "children": [
        4
      ],
      "name": "图层01"
    },
    {
      "children": [
        5
      ],
      "name": "组名1"
    },
    {
      "children": [
        6
      ],
      "name": "1珠(1)",
      "scale": [
        999.9999389648438,
        999.9999389648438,
        999.9999389648438
      ],
      "translation": [
        0,
        3.0508334636688232,
        0
      ]
    },
    {
      "children": [
        7
      ],
      "name": "Default.001"
    },
    {
      "children": [
        8
      ],
      "name": "lux_root.001",
      "scale": [
        0.0010000000474974513,
        0.0010000000474974513,
        0.0010000000474974513
      ]
    },
    {
      "name": "默认值",
      "scale": [
        0.0010000000474974513,
        0.0010000000474974513,
        0.0010000000474974513
      ]
    },
    {
      "name": "图层01.001"
    },
    {
      "children": [
        11
      ],
      "name": "组名1.001",
      "scale": [
        0.0010000000474974513,
        0.0010000000474974513,
        0.0010000000474974513
      ]
    },
    {
      "name": "图层05"
    },
    {
      "children": [
        13
      ],
      "name": "组名2",
      "scale": [
        0.0010000000474974513,
        0.0010000000474974513,
        0.0010000000474974513
      ]
    },
    {
      "name": "红宝石"
    },
    {
      "children": [
        15
      ],
      "name": "图层09"
    },
    {
      "children": [
        16
      ],
      "name": "组名3",
      "scale": [
        0.0010000000474974513,
        0.0010000000474974513,
        0.0010000000474974513
      ]
    },
    {
      "name": "图层17"
    },
    {
      "children": [
        18
      ],
      "name": "组名5",
      "scale": [
        0.0010000000474974513,
        0.0010000000474974513,
        0.0010000000474974513
      ]
    },
    {
      "name": "组名1::图层01"
    },
    {
      "children": [
        20
      ],
      "name": "JFRBooleanObject_DoNotDelete",
      "scale": [
        0.0010000000474974513,
        0.0010000000474974513,
        0.0010000000474974513
      ]
    },
    {
      "mesh": 0,
      "name": "Mesh",
      "rotation": [
        1,
        0,
        0,
        0
      ],
      "scale": [
        1.6348774433135986,
        1.6672226190567017,
        1.635608196258545
      ]
    },
    {
      "children": [
        22
      ],
      "name": "JewelCAD.001"
    },
    {
      "children": [
        23
      ],
      "name": "1(1)(1).001",
      "rotation": [
        0.70710688829422,
        0,
        0,
        0.7071066498756409
      ],
      "scale": [
        999.9999389648438,
        999.9999389648438,
        999.9999389648438
      ],
      "translation": [
        0,
        49.99999237060547,
        0
      ]
    },
    {
      "children": [
        24
      ],
      "name": "Default.002"
    },
    {
      "children": [
        25
      ],
      "name": "lux_root.002",
      "scale": [
        0.0010000000474974513,
        0.0010000000474974513,
        0.0010000000474974513
      ]
    }
  ],
  "materials": [
    {
      "doubleSided": true,
      "name": "gltf_material #0.001",
      "pbrMetallicRoughness": {
        "baseColorFactor": [
          0,
          0.5098040103912354,
          0.33333298563957214,
          1
        ]
      }
    }
  ],
  "meshes": [
    {
      "name": "Mesh-mesh.002",
      "primitives": [
        {
          "attributes": {
            "POSITION": 0,
            "NORMAL": 1
          },
          "indices": 2,
          "material": 0
        }
      ]
    }
  ],
  "accessors": [
    {
      "bufferView": 0,
      "componentType": 5126,
      "count": 6400,
      "max": [
        0.01834999956190586,
        0.0002998999843839556,
        0.018341800197958946
      ],
      "min": [
        -0.01834999956190586,
        -0.0002998999843839556,
        -0.018341800197958946
      ],
      "type": "VEC3"
    },
    {
      "bufferView": 1,
      "componentType": 5126,
      "count": 6400,
      "type": "VEC3"
    },
    {
      "bufferView": 2,
      "componentType": 5123,
      "count": 38400,
      "type": "SCALAR"
    }
  ],
  "bufferViews": [
    {
      "buffer": 0,
      "byteLength": 76800,
      "byteOffset": 0,
      "target": 34962
    },
    {
      "buffer": 0,
      "byteLength": 76800,
      "byteOffset": 76800,
      "target": 34962
    },
    {
      "buffer": 0,
      "byteLength": 76800,
      "byteOffset": 153600,
      "target": 34963
    }
  ],
  "buffers": [
    {
      "uri": "444_data.bin",
      "byteLength": 230400
    }
  ]
}