{
  "asset": {
    "generator": "Khronos glTF Blender I/O v4.5.49",
    "version": "2.0"
  },
  "scene": 0,
  "scenes": [
    {
      "name": "Scene",
      "nodes": [
        3,
        9,
        13,
        19,
        27,
        31,
        37,
        38,
        40,
        42,
        45,
        47,
        49,
        54
      ]
    }
  ],
  "nodes": [
    {
      "name": "JewelCAD"
    },
    {
      "children": [
        0
      ],
      "name": "1(1)(1)",
      "rotation": [
        0.70710688829422,
        0,
        0,
        0.7071066498756409
      ],
      "scale": [
        999.9999389648438,
        1000.0000610351562,
        1000.0000610351562
      ],
      "translation": [
        0,
        49.999996185302734,
        0
      ]
    },
    {
      "children": [
        1
      ],
      "name": "Default"
    },
    {
      "children": [
        2
      ],
      "name": "lux_root",
      "scale": [
        0.0010000000474974513,
        0.0010000000474974513,
        0.0010000000474974513
      ]
    },
    {
      "name": "Group"
    },
    {
      "children": [
        4
      ],
      "name": "图层01"
    },
    {
      "children": [
        5
      ],
      "name": "组名1"
    },
    {
      "children": [
        6
      ],
      "name": "1珠(1)",
      "rotation": [
        0,
        -0.008480643853545189,
        0,
        0.9999641180038452
      ],
      "scale": [
        1000.0000610351562,
        999.9999389648438,
        1000.0000610351562
      ],
      "translation": [
        0,
        3.0508334636688232,
        0
      ]
    },
    {
      "children": [
        7
      ],
      "name": "Default.001"
    },
    {
      "children": [
        8
      ],
      "name": "lux_root.001",
      "scale": [
        0.0010000000474974513,
        0.0010000000474974513,
        0.0010000000474974513
      ]
    },
    {
      "name": "JewelCAD.001"
    },
    {
      "children": [
        10
      ],
      "name": "1(1)(1).001",
      "rotation": [
        0.70710688829422,
        0,
        0,
        0.7071066498756409
      ],
      "scale": [
        999.9999389648438,
        999.9999389648438,
        999.9999389648438
      ],
      "translation": [
        0,
        49.99999237060547,
        0
      ]
    },
    {
      "children": [
        11
      ],
      "name": "Default.002"
    },
    {
      "children": [
        12
      ],
      "name": "lux_root.002",
      "scale": [
        0.0010000000474974513,
        0.0010000000474974513,
        0.0010000000474974513
      ]
    },
    {
      "name": "Group.001"
    },
    {
      "children": [
        14
      ],
      "name": "图层01.001"
    },
    {
      "children": [
        15
      ],
      "name": "组名1.001"
    },
    {
      "children": [
        16
      ],
      "name": "1珠(1).001",
      "rotation": [
        0,
        -0.008480643853545189,
        0,
        0.9999641180038452
      ],
      "scale": [
        1000.0000610351562,
        999.9999389648438,
        1000.0000610351562
      ],
      "translation": [
        0,
        3.0508334636688232,
        0
      ]
    },
    {
      "children": [
        17
      ],
      "name": "Default.003"
    },
    {
      "children": [
        18
      ],
      "name": "lux_root.003",
      "scale": [
        0.0010000000474974513,
        0.0010000000474974513,
        0.0010000000474974513
      ]
    },
    {
      "name": "物件_430.001",
      "translation": [
        0,
        -0.000003337627276778221,
        0
      ]
    },
    {
      "children": [
        20
      ],
      "name": "物件_430",
      "translation": [
        0,
        -0.000003337627276778221,
        0
      ]
    },
    {
      "children": [
        21
      ],
      "name": "图层01.002",
      "translation": [
        0,
        -0.000003337627276778221,
        0
      ]
    },
    {
      "children": [
        22
      ],
      "name": "组名1.002",
      "rotation": [
        -0.70710688829422,
        0,
        0,
        0.7071066498756409
      ]
    },
    {
      "children": [
        23
      ],
      "name": "RootNode"
    },
    {
      "children": [
        24
      ],
      "name": "6珠",
      "rotation": [
        0.5000161528587341,
        -0.5000161528587341,
        0.49998384714126587,
        0.49998384714126587
      ],
      "scale": [
        0.0010000000474974513,
        0.0010000000474974513,
        0.0010000000474974513
      ],
      "translation": [
        0,
        0.0502999983727932,
        -0.05000000074505806
      ]
    },
    {
      "children": [
        25
      ],
      "name": "Default.004"
    },
    {
      "children": [
        26
      ],
      "name": "lux_root.004"
    },
    {
      "name": "JewelCAD.002"
    },
    {
      "children": [
        28
      ],
      "name": "1(1)(1).002",
      "rotation": [
        0.70710688829422,
        0,
        0,
        0.7071066498756409
      ],
      "scale": [
        999.9999389648438,
        999.9999389648438,
        999.9999389648438
      ],
      "translation": [
        0,
        49.99999237060547,
        0
      ]
    },
    {
      "children": [
        29
      ],
      "name": "Default.005"
    },
    {
      "children": [
        30
      ],
      "name": "lux_root.005",
      "scale": [
        0.0010000000474974513,
        0.0010000000474974513,
        0.0010000000474974513
      ]
    },
    {
      "name": "Group.002"
    },
    {
      "children": [
        32
      ],
      "name": "图层01.003"
    },
    {
      "children": [
        33
      ],
      "name": "组名1.003"
    },
    {
      "children": [
        34
      ],
      "name": "1珠(1).002",
      "scale": [
        999.9999389648438,
        999.9999389648438,
        999.9999389648438
      ],
      "translation": [
        0,
        3.0508334636688232,
        0
      ]
    },
    {
      "children": [
        35
      ],
      "name": "Default.006"
    },
    {
      "children": [
        36
      ],
      "name": "lux_root.006",
      "scale": [
        0.0010000000474974513,
        0.0010000000474974513,
        0.0010000000474974513
      ]
    },
    {
      "name": "默认值",
      "scale": [
        0.0010000000474974513,
        0.0010000000474974513,
        0.0010000000474974513
      ]
    },
    {
      "name": "图层01.004"
    },
    {
      "children": [
        39
      ],
      "name": "组名1.004",
      "scale": [
        0.0010000000474974513,
        0.0010000000474974513,
        0.0010000000474974513
      ]
    },
    {
      "name": "图层05"
    },
    {
      "children": [
        41
      ],
      "name": "组名2",
      "scale": [
        0.0010000000474974513,
        0.0010000000474974513,
        0.0010000000474974513
      ]
    },
    {
      "name": "红宝石"
    },
    {
      "children": [
        43
      ],
      "name": "图层09"
    },
    {
      "children": [
        44
      ],
      "name": "组名3",
      "scale": [
        0.0010000000474974513,
        0.0010000000474974513,
        0.0010000000474974513
      ]
    },
    {
      "name": "图层17"
    },
    {
      "children": [
        46
      ],
      "name": "组名5",
      "scale": [
        0.0010000000474974513,
        0.0010000000474974513,
        0.0010000000474974513
      ]
    },
    {
      "name": "组名1::图层01"
    },
    {
      "children": [
        48
      ],
      "name": "JFRBooleanObject_DoNotDelete",
      "scale": [
        0.0010000000474974513,
        0.0010000000474974513,
        0.0010000000474974513
      ]
    },
    {
      "mesh": 0,
      "name": "Mesh",
      "rotation": [
        -1,
        0,
        0,
        2.0238393683906335e-14
      ],
      "scale": [
        1.2125340700149536,
        1.6672227382659912,
        1.2130762338638306
      ]
    },
    {
      "children": [
        50
      ],
      "name": "JewelCAD.003"
    },
    {
      "children": [
        51
      ],
      "name": "1(1)(1).003",
      "rotation": [
        0.70710688829422,
        0,
        0,
        0.7071066498756409
      ],
      "scale": [
        999.9999389648438,
        999.9998779296875,
        999.9998779296875
      ],
      "translation": [
        0,
        49.9999885559082,
        0
      ]
    },
    {
      "children": [
        52
      ],
      "name": "Default.007"
    },
    {
      "children": [
        53
      ],
      "name": "lux_root.007",
      "scale": [
        0.0010000000474974513,
        0.0010000000474974513,
        0.0010000000474974513
      ]
    }
  ],
  "materials": [
    {
      "alphaMode": "BLEND",
      "doubleSided": true,
      "name": "gltf_material #0.002",
      "pbrMetallicRoughness": {
        "baseColorFactor": [
          0.800000011920929,
          0.800000011920929,
          0.800000011920929,
          0.5
        ],
        "metallicFactor": 0,
        "roughnessFactor": 0.5
      }
    }
  ],
  "meshes": [
    {
      "name": "Mesh-mesh.004",
      "primitives": [
        {
          "attributes": {
            "POSITION": 0,
            "NORMAL": 1
          },
          "indices": 2,
          "material": 0
        }
      ]
    }
  ],
  "accessors": [
    {
      "bufferView": 0,
      "componentType": 5126,
      "count": 6400,
      "max": [
        0.01834999956190586,
        0.0002998999843839556,
        0.018341800197958946
      ],
      "min": [
        -0.01834999956190586,
        -0.0002998999843839556,
        -0.018341800197958946
      ],
      "type": "VEC3"
    },
    {
      "bufferView": 1,
      "componentType": 5126,
      "count": 6400,
      "type": "VEC3"
    },
    {
      "bufferView": 2,
      "componentType": 5123,
      "count": 38400,
      "type": "SCALAR"
    }
  ],
  "bufferViews": [
    {
      "buffer": 0,
      "byteLength": 76800,
      "byteOffset": 0,
      "target": 34962
    },
    {
      "buffer": 0,
      "byteLength": 76800,
      "byteOffset": 76800,
      "target": 34962
    },
    {
      "buffer": 0,
      "byteLength": 76800,
      "byteOffset": 153600,
      "target": 34963
    }
  ],
  "buffers": [
    {
      "uri": "圈圈45_data.bin",
      "byteLength": 230400
    }
  ]
}