{
  "asset": {
    "generator": "Khronos glTF Blender I/O v4.5.49",
    "version": "2.0"
  },
  "extensionsUsed": [
    "KHR_materials_specular",
    "KHR_materials_ior"
  ],
  "scene": 0,
  "scenes": [
    {
      "name": "Scene",
      "nodes": [
        1,
        3,
        5,
        7,
        9,
        16,
        20,
        26,
        30,
        36,
        44,
        48,
        54,
        55,
        57,
        59,
        62,
        64,
        66,
        70,
        71,
        72
      ]
    }
  ],
  "nodes": [
    {
      "mesh": 0,
      "name": "JewelCAD",
      "rotation": [
        1,
        0,
        0,
        0
      ],
      "scale": [
        0.07117438316345215,
        0.07539203763008118,
        0.07508634775876999
      ]
    },
    {
      "children": [
        0
      ],
      "name": "图层 01.001",
      "scale": [
        0.009999999776482582,
        0.009999999776482582,
        0.009999999776482582
      ]
    },
    {
      "name": "图层01"
    },
    {
      "children": [
        2
      ],
      "name": "组名1",
      "scale": [
        0.009999999776482582,
        0.009999999776482582,
        0.009999999776482582
      ]
    },
    {
      "name": "图层05"
    },
    {
      "children": [
        4
      ],
      "name": "组名2",
      "scale": [
        0.009999999776482582,
        0.009999999776482582,
        0.009999999776482582
      ]
    },
    {
      "name": "图层09"
    },
    {
      "children": [
        6
      ],
      "name": "组名3",
      "scale": [
        0.009999999776482582,
        0.009999999776482582,
        0.009999999776482582
      ]
    },
    {
      "name": "图层17"
    },
    {
      "children": [
        8
      ],
      "name": "组名5",
      "scale": [
        0.009999999776482582,
        0.009999999776482582,
        0.009999999776482582
      ]
    },
    {
      "name": "物件_430.003",
      "translation": [
        -0.000011444091796875,
        0,
        0
      ]
    },
    {
      "children": [
        10
      ],
      "name": "物件_430.002",
      "translation": [
        -0.00000762939453125,
        0,
        0
      ]
    },
    {
      "children": [
        11
      ],
      "name": "图层01.005",
      "translation": [
        -0.00000762939453125,
        0,
        0
      ]
    },
    {
      "children": [
        12
      ],
      "name": "组名1.005",
      "rotation": [
        -0.70710688829422,
        0,
        0,
        0.7071066498756409
      ],
      "translation": [
        -0.00000762939453125,
        0,
        -0.0000152587890625
      ]
    },
    {
      "children": [
        13
      ],
      "name": "RootNode.001",
      "translation": [
        -0.0000152587890625,
        0,
        -0.0000152587890625
      ]
    },
    {
      "children": [
        14
      ],
      "name": "6珠.001",
      "scale": [
        0.0010000000474974513,
        0.0010000000474974513,
        0.0010000000474974513
      ],
      "translation": [
        -0.05000314861536026,
        0.0041014146991074085,
        -0.046195127069950104
      ]
    },
    {
      "children": [
        15
      ],
      "name": "Default.008"
    },
    {
      "name": "JewelCAD.001"
    },
    {
      "children": [
        17
      ],
      "name": "1(1)(1)",
      "rotation": [
        0.70710688829422,
        0,
        0,
        0.7071066498756409
      ],
      "scale": [
        999.9999389648438,
        999.999755859375,
        999.999755859375
      ],
      "translation": [
        0,
        49.99998092651367,
        0
      ]
    },
    {
      "children": [
        18
      ],
      "name": "Default"
    },
    {
      "children": [
        19
      ],
      "name": "lux_root",
      "scale": [
        0.0010000000474974513,
        0.0010000000474974513,
        0.0010000000474974513
      ]
    },
    {
      "name": "Group"
    },
    {
      "children": [
        21
      ],
      "name": "图层01.001"
    },
    {
      "children": [
        22
      ],
      "name": "组名1.001"
    },
    {
      "children": [
        23
      ],
      "name": "1珠(1)",
      "rotation": [
        0,
        -0.008480647578835487,
        0,
        0.9999640583992004
      ],
      "scale": [
        1000.0001220703125,
        999.9999389648438,
        1000.0001220703125
      ],
      "translation": [
        0,
        3.0508334636688232,
        0
      ]
    },
    {
      "children": [
        24
      ],
      "name": "Default.001"
    },
    {
      "children": [
        25
      ],
      "name": "lux_root.001",
      "scale": [
        0.0010000000474974513,
        0.0010000000474974513,
        0.0010000000474974513
      ]
    },
    {
      "name": "JewelCAD.002"
    },
    {
      "children": [
        27
      ],
      "name": "1(1)(1).001",
      "rotation": [
        0.70710688829422,
        0,
        0,
        0.7071066498756409
      ],
      "scale": [
        999.9999389648438,
        999.9996948242188,
        999.9996948242188
      ],
      "translation": [
        0,
        49.99998092651367,
        0
      ]
    },
    {
      "children": [
        28
      ],
      "name": "Default.002"
    },
    {
      "children": [
        29
      ],
      "name": "lux_root.002",
      "scale": [
        0.0010000000474974513,
        0.0010000000474974513,
        0.0010000000474974513
      ]
    },
    {
      "name": "Group.001"
    },
    {
      "children": [
        31
      ],
      "name": "图层01.002"
    },
    {
      "children": [
        32
      ],
      "name": "组名1.002"
    },
    {
      "children": [
        33
      ],
      "name": "1珠(1).001",
      "rotation": [
        0,
        -0.008480647578835487,
        0,
        0.9999640583992004
      ],
      "scale": [
        1000.0001220703125,
        999.9999389648438,
        1000.0001220703125
      ],
      "translation": [
        0,
        3.0508334636688232,
        0
      ]
    },
    {
      "children": [
        34
      ],
      "name": "Default.003"
    },
    {
      "children": [
        35
      ],
      "name": "lux_root.003",
      "scale": [
        0.0010000000474974513,
        0.0010000000474974513,
        0.0010000000474974513
      ]
    },
    {
      "name": "物件_430.001",
      "translation": [
        0,
        -0.000003337860107421875,
        0
      ]
    },
    {
      "children": [
        37
      ],
      "name": "物件_430",
      "translation": [
        0,
        -0.000003337860107421875,
        0
      ]
    },
    {
      "children": [
        38
      ],
      "name": "图层01.003",
      "translation": [
        0,
        -0.000003337860107421875,
        0
      ]
    },
    {
      "children": [
        39
      ],
      "name": "组名1.003",
      "rotation": [
        -0.70710688829422,
        0,
        0,
        0.7071066498756409
      ]
    },
    {
      "children": [
        40
      ],
      "name": "RootNode"
    },
    {
      "children": [
        41
      ],
      "name": "6珠",
      "rotation": [
        0.5000161528587341,
        -0.5000161528587341,
        0.49998384714126587,
        0.49998384714126587
      ],
      "scale": [
        0.0010000000474974513,
        0.0010000000474974513,
        0.0010000000474974513
      ],
      "translation": [
        0,
        0.0502999983727932,
        -0.05000000074505806
      ]
    },
    {
      "children": [
        42
      ],
      "name": "Default.004"
    },
    {
      "children": [
        43
      ],
      "name": "lux_root.004"
    },
    {
      "name": "JewelCAD.003"
    },
    {
      "children": [
        45
      ],
      "name": "1(1)(1).002",
      "rotation": [
        0.70710688829422,
        0,
        0,
        0.7071066498756409
      ],
      "scale": [
        999.9999389648438,
        999.9996948242188,
        999.9996948242188
      ],
      "translation": [
        0,
        49.99998092651367,
        0
      ]
    },
    {
      "children": [
        46
      ],
      "name": "Default.005"
    },
    {
      "children": [
        47
      ],
      "name": "lux_root.005",
      "scale": [
        0.0010000000474974513,
        0.0010000000474974513,
        0.0010000000474974513
      ]
    },
    {
      "name": "Group.002"
    },
    {
      "children": [
        49
      ],
      "name": "图层01.004"
    },
    {
      "children": [
        50
      ],
      "name": "组名1.004"
    },
    {
      "children": [
        51
      ],
      "name": "1珠(1).002",
      "scale": [
        999.9999389648438,
        999.9999389648438,
        999.9999389648438
      ],
      "translation": [
        0,
        3.0508334636688232,
        0
      ]
    },
    {
      "children": [
        52
      ],
      "name": "Default.006"
    },
    {
      "children": [
        53
      ],
      "name": "lux_root.006",
      "scale": [
        0.0010000000474974513,
        0.0010000000474974513,
        0.0010000000474974513
      ]
    },
    {
      "name": "默认值",
      "scale": [
        0.0010000000474974513,
        0.0010000000474974513,
        0.0010000000474974513
      ]
    },
    {
      "name": "图层01.006"
    },
    {
      "children": [
        56
      ],
      "name": "组名1.006",
      "scale": [
        0.0010000000474974513,
        0.0010000000474974513,
        0.0010000000474974513
      ]
    },
    {
      "name": "图层05.001"
    },
    {
      "children": [
        58
      ],
      "name": "组名2.001",
      "scale": [
        0.0010000000474974513,
        0.0010000000474974513,
        0.0010000000474974513
      ]
    },
    {
      "name": "红宝石"
    },
    {
      "children": [
        60
      ],
      "name": "图层09.001"
    },
    {
      "children": [
        61
      ],
      "name": "组名3.001",
      "scale": [
        0.0010000000474974513,
        0.0010000000474974513,
        0.0010000000474974513
      ]
    },
    {
      "name": "图层17.001"
    },
    {
      "children": [
        63
      ],
      "name": "组名5.001",
      "scale": [
        0.0010000000474974513,
        0.0010000000474974513,
        0.0010000000474974513
      ]
    },
    {
      "name": "组名1::图层01"
    },
    {
      "children": [
        65
      ],
      "name": "JFRBooleanObject_DoNotDelete",
      "scale": [
        0.0010000000474974513,
        0.0010000000474974513,
        0.0010000000474974513
      ]
    },
    {
      "name": "JewelCAD.004"
    },
    {
      "children": [
        67
      ],
      "name": "1(1)(1).003",
      "rotation": [
        0.70710688829422,
        0,
        0,
        0.7071066498756409
      ],
      "scale": [
        999.9999389648438,
        999.9996337890625,
        999.9996337890625
      ],
      "translation": [
        0,
        49.99998092651367,
        0
      ]
    },
    {
      "children": [
        68
      ],
      "name": "Default.007"
    },
    {
      "children": [
        69
      ],
      "name": "lux_root.007",
      "scale": [
        0.0010000000474974513,
        0.0010000000474974513,
        0.0010000000474974513
      ]
    },
    {
      "name": "图层 01.002",
      "scale": [
        0.009999999776482582,
        0.009999999776482582,
        0.009999999776482582
      ],
      "translation": [
        0.0001353202824248001,
        0.000027473084628582,
        0.0000631883303867653
      ]
    },
    {
      "name": "图层 01",
      "scale": [
        0.009999999776482582,
        0.009999999776482582,
        0.009999999776482582
      ],
      "translation": [
        0.0001353202824248001,
        0.000027473084628582,
        0.0000631883303867653
      ]
    }
  ],
  "materials": [
    {
      "doubleSided": true,
      "extensions": {
        "KHR_materials_specular": {
          "specularColorFactor": [
            2,
            2,
            2
          ]
        },
        "KHR_materials_ior": {
          "ior": 1.5399999618530273
        }
      },
      "name": "材质_1",
      "pbrMetallicRoughness": {
        "baseColorFactor": [
          0,
          0,
          0,
          1
        ],
        "metallicFactor": 0,
        "roughnessFactor": 0.12273457646369934
      }
    }
  ],
  "meshes": [
    {
      "name": "JewelCAD",
      "primitives": [
        {
          "attributes": {
            "POSITION": 0,
            "NORMAL": 1
          },
          "indices": 2,
          "material": 0
        }
      ]
    }
  ],
  "accessors": [
    {
      "bufferView": 0,
      "componentType": 5126,
      "count": 8783,
      "max": [
        2.809999942779541,
        3.9791998863220215,
        3.9953999519348145
      ],
      "min": [
        -2.809999942779541,
        -3.9791998863220215,
        -3.9953999519348145
      ],
      "type": "VEC3"
    },
    {
      "bufferView": 1,
      "componentType": 5126,
      "count": 8783,
      "type": "VEC3"
    },
    {
      "bufferView": 2,
      "componentType": 5123,
      "count": 32256,
      "type": "SCALAR"
    }
  ],
  "bufferViews": [
    {
      "buffer": 0,
      "byteLength": 105396,
      "byteOffset": 0,
      "target": 34962
    },
    {
      "buffer": 0,
      "byteLength": 105396,
      "byteOffset": 105396,
      "target": 34962
    },
    {
      "buffer": 0,
      "byteLength": 64512,
      "byteOffset": 210792,
      "target": 34963
    }
  ],
  "buffers": [
    {
      "uri": "黑药片_data.bin",
      "byteLength": 275304
    }
  ]
}